<?xml version="1.0" standalone="no"?>
<!DOCTYPE svg PUBLIC "-//W3C//DTD SVG 1.1//EN" "http://www.w3.org/Graphics/SVG/1.1/DTD/svg11.dtd" >
<svg>
<metadata>
Created by FontForge 20090914 at Sun Jan 29 17:50:14 2012
 By www-data
Copyright (c) 2011, Botjo Nikoltchev (post@carrois.com www.carrois.com), with Reserved Font Name "Ropa Sans"
</metadata>
<defs>
<font id="RopaSans-Regular" horiz-adv-x="520" >
  <font-face 
    font-family="Ropa Sans"
    font-weight="400"
    font-stretch="normal"
    units-per-em="1000"
    panose-1="2 0 0 0 0 0 0 0 0 0"
    ascent="800"
    descent="-200"
    x-height="488"
    cap-height="655"
    bbox="-52.999 -231.001 986 841"
    underline-thickness="50"
    underline-position="-50"
    unicode-range="U+0001-U+F6C3"
  />
<missing-glyph horiz-adv-x="548" 
d="M80 683h388v-683h-388v683zM400 68v547h-252v-547h252z" />
    <glyph glyph-name=".notdef" horiz-adv-x="548" 
d="M80 683h388v-683h-388v683zM400 68v547h-252v-547h252z" />
    <glyph glyph-name="uni0001" horiz-adv-x="0" 
 />
    <glyph glyph-name="uni0002" horiz-adv-x="0" 
 />
    <glyph glyph-name="uni0003" horiz-adv-x="0" 
 />
    <glyph glyph-name="uni0004" horiz-adv-x="0" 
 />
    <glyph glyph-name="uni0005" horiz-adv-x="0" 
 />
    <glyph glyph-name="uni0006" horiz-adv-x="0" 
 />
    <glyph glyph-name="uni0007" horiz-adv-x="0" 
 />
    <glyph glyph-name="uni0008" horiz-adv-x="0" 
 />
    <glyph glyph-name="uni0009" unicode="&#x9;" horiz-adv-x="0" 
 />
    <glyph glyph-name="uni0010" horiz-adv-x="0" 
 />
    <glyph glyph-name="uni0011" horiz-adv-x="0" 
 />
    <glyph glyph-name="uni0012" horiz-adv-x="0" 
 />
    <glyph glyph-name="uni0013" horiz-adv-x="0" 
 />
    <glyph glyph-name="uni0014" horiz-adv-x="0" 
 />
    <glyph glyph-name="uni0015" horiz-adv-x="0" 
 />
    <glyph glyph-name="uni0016" horiz-adv-x="0" 
 />
    <glyph glyph-name="uni0017" horiz-adv-x="0" 
 />
    <glyph glyph-name="uni0018" horiz-adv-x="0" 
 />
    <glyph glyph-name="uni0019" horiz-adv-x="0" 
 />
    <glyph glyph-name="space" unicode=" " horiz-adv-x="300" 
 />
    <glyph glyph-name="exclam" unicode="!" horiz-adv-x="211" 
d="M65 200l-7 495h95l-7 -495h-81zM161 33c0 -30 -18.667 -45 -56 -45c-36.667 0 -55 15 -55 45v29c0 30.667 18.333 46 55 46c37.333 0 56 -15.333 56 -46v-29z" />
    <glyph glyph-name="quotedbl" unicode="&#x22;" horiz-adv-x="375" 
d="M75 683h85v-254h-85v254zM215 683h85v-254h-85v254z" />
    <glyph glyph-name="numbersign" unicode="#" 
d="M423 125v-125h-85v125h-156v-125h-85v125h-80v70h80v223h-80v70h80v125h85v-125h156v125h85v-125h80v-70h-80v-223h80v-70h-80zM338 418h-156v-223h156v223z" />
    <glyph glyph-name="dollar" unicode="$" 
d="M226 -94l-0.00390625 82.001c-21.333 0.666992 -42.5 2.66699 -63.5 6s-42.167 7 -63.5 11l2 73c24.667 -5.33301 47.334 -9.5 68.001 -12.5s41.667 -4.5 63 -4.5c48 0 81.333 7.33301 100 22s28 36 28 64v20c0 10.667 -1.16699 20 -3.5 28s-6.66602 15 -12.999 21
s-15.166 11.667 -26.499 17s-26 10.666 -44 15.999l-62 19c-26.667 8 -48.834 16.5 -66.501 25.5s-31.667 20 -42 33s-17.666 28.667 -21.999 47s-6.5 40.833 -6.5 67.5v5c0 48.667 11.667 86.667 35 114s62.333 44 117 50v85h75v-83
c18 -1.33301 36.167 -3.16602 54.5 -5.49902s36.5 -4.83301 54.5 -7.5l-2 -73c-18.667 3.33301 -39.334 6.5 -62.001 9.5s-45.667 4.5 -69 4.5c-44 0 -74.667 -7.33301 -92 -22s-26 -36 -26 -64v-20c0 -12 0.833008 -22.167 2.5 -30.5s5.16699 -15.833 10.5 -22.5
s13 -12.5 23 -17.5s23.333 -9.83301 40 -14.5l63 -19c28.667 -8.66699 52.334 -17.834 71.001 -27.501s33.667 -21 45 -34s19.333 -28.167 24 -45.5s7 -38.333 7 -63v-5c0 -44.667 -10.667 -81 -32 -109s-58.666 -45.667 -111.999 -53v-87h-75z" />
    <glyph glyph-name="percent" unicode="%" horiz-adv-x="922" 
d="M341 0h-87l335 613h87zM380 423c0 -51.333 -13 -90.833 -39 -118.5s-65.333 -41.5 -118 -41.5s-92.167 13.833 -118.5 41.5s-39.5 67.167 -39.5 118.5v30c0 51.333 13.167 90.833 39.5 118.5s65.833 41.5 118.5 41.5s92 -13.833 118 -41.5s39 -67.167 39 -118.5v-30z
M295 453c0 30.667 -6 52.5 -18 65.5s-30 19.5 -54 19.5s-42.167 -6.66699 -54.5 -20s-18.5 -35 -18.5 -65v-30c0 -30 6 -51.667 18 -65s30.333 -20 55 -20c24 0 42 6.66699 54 20s18 35 18 65v30zM857 148c0 -51.333 -13 -90.833 -39 -118.5s-65.333 -41.5 -118 -41.5
s-92.167 13.833 -118.5 41.5s-39.5 67.167 -39.5 118.5v30c0 51.333 13.167 90.833 39.5 118.5s65.833 41.5 118.5 41.5s92 -13.833 118 -41.5s39 -67.167 39 -118.5v-30zM772 178c0 30.667 -6 52.5 -18 65.5s-30 19.5 -54 19.5s-42.167 -6.66699 -54.5 -20
s-18.5 -35 -18.5 -65v-30c0 -30 6 -51.667 18 -65s30.333 -20 55 -20c24 0 42 6.66699 54 20s18 35 18 65v30z" />
    <glyph glyph-name="ampersand" unicode="&#x26;" horiz-adv-x="530" 
d="M245 596c-36 0 -62.0029 -8.3291 -78.0029 -24.9961s-24 -40.334 -24 -71.001v-22c0 -34 10.5 -61 31.5 -81s52.167 -30 93.5 -30h101v73h82v-73h74v-69h-74v-285c-21.333 -4.66699 -40 -8.5 -56 -11.5s-30.833 -5.5 -44.5 -7.5s-27 -3.5 -40 -4.5
s-27.167 -1.5 -42.5 -1.5c-44 0 -80.833 4.16699 -110.5 12.5s-53.667 20.166 -72 35.499s-31.333 33.666 -39 54.999s-11.5 45 -11.5 71v22c0 37.333 10 69.833 30 97.5s49 47.167 87 58.5c-33.333 14.667 -57 34.5 -71 59.5s-21 53.5 -21 85.5v22c0 22 4 42.833 12 62.5
s19.667 36.667 35 51s34.666 25.666 57.999 33.999s50 12.5 80 12.5c18.667 0 37.334 -1 56.001 -3s39.334 -4.66699 62.001 -8l-2 -71c-17.333 3.33301 -35.666 6 -54.999 8s-39.666 3 -60.999 3zM368.997 298.004h-107c-48.667 0 -84.5 -9.83301 -107.5 -29.5
s-34.5 -46.5 -34.5 -80.5v-27c0 -32 11.833 -56.833 35.5 -74.5s61.167 -26.5 112.5 -26.5c17.333 0 33.5 1 48.5 3s32.5 5.33301 52.5 10v225z" />
    <glyph glyph-name="quotesingle" unicode="'" horiz-adv-x="235" 
d="M75 683h85v-254h-85v254z" />
    <glyph glyph-name="parenleft" unicode="(" 
d="M163 603c0 36.667 2.16797 66.8311 6.50098 90.498s12.833 42.5 25.5 56.5s30.167 23.667 52.5 29s51.166 8 86.499 8v-72c-18 -1.33301 -32.667 -3.16602 -44 -5.49902s-20 -6.33301 -26 -12s-10.167 -13 -12.5 -22s-3.5 -20.833 -3.5 -35.5v-597
c0 -18 0.833008 -32.5 2.5 -43.5s5.5 -19.833 11.5 -26.5s14.667 -11.5 26 -14.5s26.666 -4.83301 45.999 -5.5v-72c-35.333 0 -64.166 2.66699 -86.499 8s-39.833 15 -52.5 29s-21.167 32.833 -25.5 56.5s-6.5 53.834 -6.5 90.501v538z" />
    <glyph glyph-name="parenright" unicode=")" 
d="M356 65c0 -36.667 -2.33203 -66.8311 -6.99902 -90.498s-13.167 -42.5 -25.5 -56.5s-29.666 -23.667 -51.999 -29s-51.166 -8 -86.499 -8v72c19.333 0.666992 34.666 2.5 45.999 5.5s20 7.83301 26 14.5s9.83301 15.5 11.5 26.5s2.5 25.5 2.5 43.5v597
c0 14.667 -1.16699 26.5 -3.5 35.5s-6.5 16.333 -12.5 22s-14.667 9.66699 -26 12s-26 4.16602 -44 5.49902v72c35.333 0 64.166 -2.66699 86.499 -8s39.666 -15 51.999 -29s20.833 -32.833 25.5 -56.5s7 -53.834 7 -90.501v-538z" />
    <glyph glyph-name="asterisk" unicode="*" horiz-adv-x="410" 
d="M229 583l103 44l23 -66l-111 -25l74 -84l-57 -41l-57 96l-57 -97l-56 42l74 85l-110 24l23 66l102 -43l-10 111h69z" />
    <glyph glyph-name="plus" unicode="+" 
d="M298 265v-152h-76v152h-140v71h140v152h76v-152h140v-71h-140z" />
    <glyph glyph-name="comma" unicode="," horiz-adv-x="220" 
d="M165 32c0 -19.333 -2.33301 -36.332 -7 -50.999l-43 -142h-60l36 152c-23.333 5.33301 -35 19.666 -35 42.999v29c0 30 18 45 54 45c36.667 0 55 -15 55 -45v-31z" />
    <glyph glyph-name="hyphen" unicode="-" horiz-adv-x="350" 
d="M65 263v65h220v-65h-220z" />
    <glyph glyph-name="period" unicode="." horiz-adv-x="221" 
d="M166 33c0 -30 -18.667 -45 -56 -45c-36.667 0 -55 15 -55 45v29c0 30.667 18.333 46 55 46c37.333 0 56 -15.333 56 -46v-29z" />
    <glyph glyph-name="slash" unicode="/" 
d="M115 0l205 683h85l-205 -683h-85z" />
    <glyph glyph-name="zero" unicode="0" 
d="M445 193c0 -69.333 -16 -120.833 -48 -154.5s-77.667 -50.5 -137 -50.5s-105 16.833 -137 50.5s-48 85.167 -48 154.5v215c0 69.333 16 120.833 48 154.5s77.667 50.5 137 50.5s105 -16.833 137 -50.5s48 -85.167 48 -154.5v-215zM360 416
c0 44 -8.83301 75.833 -26.5 95.5s-42.167 29.5 -73.5 29.5c-32 0 -56.667 -9.83301 -74 -29.5s-26 -51.5 -26 -95.5v-231c0 -44 8.83301 -75.833 26.5 -95.5s42.167 -29.5 73.5 -29.5s55.833 9.83301 73.5 29.5s26.5 51.5 26.5 95.5v231z" />
    <glyph glyph-name="one" unicode="1" 
d="M109 0v73h128v446h-2l-133 -57l-17 73l162 66h75v-528h112v-73h-325z" />
    <glyph glyph-name="two" unicode="2" 
d="M236 541c-19.333 0 -40.8311 -2.16797 -64.498 -6.50098s-44.167 -9.16602 -61.5 -14.499v73c22 6 44.167 10.833 66.5 14.5s42.166 5.5 59.499 5.5c65.333 0 113.166 -13 143.499 -39s45.5 -65 45.5 -117v-22c0 -14 -1 -27.667 -3 -41s-5.83301 -27.166 -11.5 -41.499
s-14 -30 -25 -47s-25.5 -36.167 -43.5 -57.5l-145 -175h225v-73h-327v65l200 253c9.33301 12 17 22.667 23 32s10.667 18.166 14 26.499s5.5 17 6.5 26s1.5 19.5 1.5 31.5v18c0 32 -8.16699 54.833 -24.5 68.5s-42.833 20.5 -79.5 20.5z" />
    <glyph glyph-name="three" unicode="3" 
d="M229 543c-19.333 0 -40.832 -1.50195 -64.499 -4.50195s-44.167 -6.16699 -61.5 -9.5v71c22 3.33301 44.167 6.33301 66.5 9s42.166 4 59.499 4c57.333 0 100.833 -13.667 130.5 -41s44.5 -65.666 44.5 -114.999v-10c0 -30.667 -6.33301 -57.334 -19 -80.001
s-32 -40.334 -58 -53.001c28 -11.333 50 -29.666 66 -54.999s24 -54 24 -86v-10c0 -25.333 -3.83301 -48.833 -11.5 -70.5s-19.334 -40.167 -35.001 -55.5s-35 -27.333 -58 -36s-49.833 -13 -80.5 -13c-17.333 0 -37.666 1.33301 -60.999 4s-46 5.66699 -68 9v71
c17.333 -3.33301 38.333 -6.33301 63 -9s46.667 -4 66 -4c32 0 56.667 8.83301 74 26.5s26 41.834 26 72.501v16c0 68 -35 102 -105 102h-89v68h89c32 0 55.333 7.83301 70 23.5s22 40.834 22 75.501v19c0 54 -30 81 -90 81z" />
    <glyph glyph-name="four" unicode="4" 
d="M265 601l-126 -402h174v202h82v-202h74v-70h-74v-129h-83v129h-239l-22 45l137 427h77z" />
    <glyph glyph-name="five" unicode="5" 
d="M438 176c0 -62 -16 -108.834 -48 -140.501s-81 -47.5 -147 -47.5c-12.667 0 -25.834 0.666992 -39.501 2s-27.167 3 -40.5 5s-26 4.33301 -38 7s-23 5.33398 -33 8.00098v69c8.66699 -2 19.834 -4.16699 33.501 -6.5s27.667 -4.33301 42 -6s28 -3.16699 41 -4.5
s23.833 -2 32.5 -2c37.333 0 65.333 9.83301 84 29.5s28 48.5 28 86.5v39c0 34 -6.5 58.5 -19.5 73.5s-31.167 22.5 -54.5 22.5c-26.667 0 -50.167 -5 -70.5 -15s-40.833 -26.667 -61.5 -50h-65v358h308v-73h-223v-193c37.333 29.333 81.666 44 132.999 44
c44.667 0 78.834 -13 102.501 -39s35.5 -69.667 35.5 -131v-36z" />
    <glyph glyph-name="six" unicode="6" 
d="M75 362c0 78.667 26.334 138.667 79.001 180s132 62.666 238 63.999v-73c-84 -1.33301 -143.667 -15.166 -179 -41.499s-53 -64.166 -53 -113.499v-56c25.333 24 49 41.167 71 51.5s43 15.5 63 15.5c46.667 0 83.5 -14.333 110.5 -43s40.5 -73.334 40.5 -134.001v-39
c0 -60.667 -15.833 -106.667 -47.5 -138s-77.834 -47 -138.501 -47s-106.5 16.5 -137.5 49.5s-46.5 79.833 -46.5 140.5v184zM160.001 173c0 -75.333 32.9971 -113 98.9971 -113c67.333 0 101 36 101 108v47c0 34 -7.16699 59.167 -21.5 75.5s-34.166 24.5 -59.499 24.5
c-19.333 0 -39.166 -6.5 -59.499 -19.5s-40.166 -28.167 -59.499 -45.5v-77z" />
    <glyph glyph-name="seven" unicode="7" 
d="M440 600v-58l-224 -542h-91l224 525v2h-270v73h361z" />
    <glyph glyph-name="eight" unicode="8" 
d="M455 163c0 -54.667 -16.5029 -97.499 -49.5029 -128.499s-81.5 -46.5 -145.5 -46.5c-63.333 0 -111.666 15.333 -144.999 46s-50 73.667 -50 129v15c0 69.333 29.667 117 89 143c-21.333 12.667 -37.166 30 -47.499 52s-15.5 47.667 -15.5 77v5
c0 50.667 15.167 89.667 45.5 117s71.5 41 123.5 41s93.167 -13.5 123.5 -40.5s45.5 -66.167 45.5 -117.5v-5c0 -29.333 -5.16699 -55 -15.5 -77s-26.166 -39.333 -47.499 -52c28.667 -13.333 50.667 -31.833 66 -55.5s23 -52.834 23 -87.501v-15zM345.997 460.001
c0 30 -7.16699 52 -21.5 66s-35.833 21 -64.5 21c-57.333 0 -86 -29 -86 -87v-19c0 -31.333 6.5 -53.833 19.5 -67.5s35.167 -20.5 66.5 -20.5c32 0 54.333 6.83301 67 20.5s19 36.167 19 67.5v19zM369.997 180.001c0 34.667 -9.83301 61.167 -29.5 79.5
s-46.5 27.5 -80.5 27.5c-34.667 0 -61.667 -9.33301 -81 -28s-29 -45 -29 -79v-25c0 -28.667 9.33301 -51.834 28 -69.501s46 -26.5 82 -26.5s63.333 8.83301 82 26.5s28 40.834 28 69.501v25z" />
    <glyph glyph-name="nine" unicode="9" 
d="M445 208c0 -77.333 -17.001 -133.333 -51.001 -168s-85 -52 -153 -52c-11.333 0 -23.333 0.666992 -36 2s-25 2.83301 -37 4.5s-23 3.33398 -33 5.00098s-17.667 3.16699 -23 4.5v71l29.5 -5c11.667 -2 23.834 -3.83301 36.501 -5.5s24.5 -3 35.5 -4
s20.167 -1.5 27.5 -1.5c40 0 69.833 10.833 89.5 32.5s29.5 58.5 29.5 110.5v76c-46.667 -44.667 -92 -67 -136 -67c-46.667 0 -83.167 14.667 -109.5 44s-39.5 73.666 -39.5 132.999v39c0 60 15.5 105.833 46.5 137.5s77.5 47.5 139.5 47.5c60.667 0 106.5 -16 137.5 -48
s46.5 -79.333 46.5 -142v-214zM359.999 427c0 75.333 -32.9971 113 -98.9971 113c-67.333 0 -101 -36 -101 -108v-47c0 -33.333 7.16699 -58.333 21.5 -75s34.166 -25 59.499 -25c19.333 0 39.166 6.5 59.499 19.5s40.166 28.167 59.499 45.5v77z" />
    <glyph glyph-name="colon" unicode=":" horiz-adv-x="221" 
d="M166 33c0 -30 -18.667 -45 -56 -45c-36.667 0 -55 15 -55 45v29c0 30.667 18.333 46 55 46c37.333 0 56 -15.333 56 -46v-29zM166 425c0 -30 -18.667 -45 -56 -45c-36.667 0 -55 15 -55 45v29c0 30.667 18.333 46 55 46c37.333 0 56 -15.333 56 -46v-29z" />
    <glyph glyph-name="semicolon" unicode=";" horiz-adv-x="221" 
d="M166 425c0 -30 -18.667 -45 -56 -45c-36.667 0 -55 15 -55 45v29c0 30.667 18.333 46 55 46c37.333 0 56 -15.333 56 -46v-29zM165 32c0 -19.333 -2.33301 -36.332 -7 -50.999l-43 -142h-60l36 152c-23.333 5.33301 -35 19.666 -35 42.999v29c0 30 18 45 54 45
c36.667 0 55 -15 55 -45v-31z" />
    <glyph glyph-name="less" unicode="&#x3c;" 
d="M80 259v75l360 160v-83l-276 -114l276 -115v-83z" />
    <glyph glyph-name="equal" unicode="=" 
d="M83 180v70h354v-70h-354zM83 351v70h354v-70h-354z" />
    <glyph glyph-name="greater" unicode="&#x3e;" 
d="M80 99v83l276 115l-276 114v83l360 -160v-75z" />
    <glyph glyph-name="question" unicode="?" horiz-adv-x="395" 
d="M151 627c-19.333 0 -40.834 -2.00195 -64.501 -6.00195s-44.167 -8 -61.5 -12v70c22 4.66699 45 8.5 69 11.5s44.667 4.5 62 4.5c66.667 0 114 -12.167 142 -36.5s42 -58.166 42 -101.499v-25c0 -30 -6.66699 -58.5 -20 -85.5s-35.666 -56.833 -66.999 -89.5l-33 -36
c-5.33301 -5.33301 -9.66602 -10.5 -12.999 -15.5s-6 -10.167 -8 -15.5s-3.5 -11.666 -4.5 -18.999s-1.5 -16 -1.5 -26v-45h-81v32c0 16 0.5 29.5 1.5 40.5s2.83301 20.833 5.5 29.5s6.66699 17 12 25s12.333 17 21 27l58 68c9.33301 10.667 16.833 20.5 22.5 29.5
s10.167 17.667 13.5 26s5.66602 17 6.99902 26s2 19.167 2 30.5v22c0 24 -7.16699 41.833 -21.5 53.5s-41.833 17.5 -82.5 17.5zM209.999 32.998c0 -30 -18.667 -45 -56 -45c-36.667 0 -55 15 -55 45v29c0 30.667 18.333 46 55 46c37.333 0 56 -15.333 56 -46v-29z" />
    <glyph glyph-name="at" unicode="@" horiz-adv-x="960" 
d="M299 320c7.33301 54.667 25.1631 96.3291 53.4961 124.996s64.833 43 109.5 43c10.667 0 21.667 -1.66699 33 -5s22 -7.66602 32 -12.999s19.5 -11.166 28.5 -17.499s16.833 -12.5 23.5 -18.5l5 41h80l-40 -317c-0.666992 -3.33301 -1.16699 -7.16602 -1.5 -11.499
s-0.5 -7.16602 -0.5 -8.49902c0 -14.667 3.83301 -26.334 11.5 -35.001s20.834 -13 39.501 -13c17.333 0 33.666 4.33301 48.999 13s28.833 21 40.5 37s20.834 34.833 27.501 56.5s10 45.5 10 71.5v50c0 99.333 -27.333 174.333 -82 225s-137.334 76 -248.001 76
c-98 0 -174.167 -28.333 -228.5 -85s-81.5 -138.667 -81.5 -246v-100c0 -97.333 25.833 -171.166 77.5 -221.499s129.167 -75.5 232.5 -75.5h135v-76h-135c-135.333 0 -235 31.833 -299 95.5s-96 156.167 -96 277.5v100c0 60 7.83301 114.833 23.5 164.5
s39.667 92.5 72 128.5s73.333 64 123 84s108.5 30 176.5 30c141.333 0 245.833 -31.833 313.5 -95.5s101.5 -157.5 101.5 -281.5v-50c0 -36.667 -4.83301 -70.5 -14.5 -101.5s-23.667 -57.667 -42 -80s-40.666 -39.833 -66.999 -52.5s-56.166 -19 -89.499 -19
c-38 0 -67.5 8.16699 -88.5 24.5s-33.5 39.5 -37.5 69.5c-23.333 -28.667 -48.5 -51.5 -75.5 -68.5s-53.167 -25.5 -78.5 -25.5c-37.333 0 -65.666 11 -84.999 33s-29 53.667 -29 95c0 4 0.333008 10.5 1 19.5s1.33398 15.5 2.00098 19.5zM417.997 90.9951
c19.333 0 40.001 7.66699 62.001 23s42.667 38 62 68l22 181c-12 14.667 -26.833 26.5 -44.5 35.5s-34.167 13.5 -49.5 13.5c-22.667 0 -41.834 -8.16699 -57.501 -24.5s-25.834 -42.833 -30.501 -79.5l-15 -115c-2 -12 -3 -22.667 -3 -32
c0 -25.333 4.83301 -43.333 14.5 -54s22.834 -16 39.501 -16z" />
    <glyph glyph-name="A" unicode="A" horiz-adv-x="536" 
d="M386 152h-241l-43 -152h-87l200 655h105l201 -655h-92zM166 228h198l-98 349z" />
    <glyph glyph-name="B" unicode="B" horiz-adv-x="528" 
d="M75 663c23.333 1.33301 49.501 2.33203 78.501 2.99902s61.5 1 97.5 1c72 0 125.833 -14.833 161.5 -44.5s53.5 -68.167 53.5 -115.5v-22c0 -33.333 -7.33301 -62.333 -22 -87s-38 -44 -70 -58c37.333 -8 66.5 -25 87.5 -51s31.5 -58.667 31.5 -98v-22
c0 -26 -4.66699 -50.167 -14 -72.5s-23.5 -41.5 -42.5 -57.5s-43.333 -28.5 -73 -37.5s-64.834 -13.5 -105.501 -13.5h-41c-12 0 -24.5 0.333008 -37.5 1s-27.667 1.33398 -44 2.00098s-36.5 1.66699 -60.5 3v669zM160.001 67.999
c13.333 -1.33301 24.335 -2.33203 33.002 -2.99902s16.5 -1.33398 23.5 -2.00098s13.5 -1 19.5 -1h22c53.333 0 91.666 10.167 114.999 30.5s35 47.5 35 81.5v21c0 33.333 -11.333 58.833 -34 76.5s-59.334 26.5 -110.001 26.5h-104v-230zM160.003 367h97.999
c40.667 0 71.334 9.66699 92.001 29s31 46.333 31 81v17c0 32 -10.833 56.667 -32.5 74s-58.5 26 -110.5 26c-24 0 -50 -1 -78 -3v-224z" />
    <glyph glyph-name="C" unicode="C" horiz-adv-x="476" 
d="M283 667c22.667 0 45.833 -1.83301 69.5 -5.5l68.5 -10.5l-2 -75c-16.667 3.33301 -37.334 6.83301 -62.001 10.5s-49.334 5.5 -74.001 5.5c-46 0 -78.833 -9.16699 -98.5 -27.5s-29.5 -49.5 -29.5 -93.5v-286c0 -43.333 9.83301 -74.166 29.5 -92.499
s52.5 -27.5 98.5 -27.5c24.667 0 49.334 1.83301 74.001 5.5s45.334 7.16699 62.001 10.5l2 -77l-68.5 -10.5c-23.667 -3.66699 -46.834 -5.5 -69.501 -5.5c-39.333 0 -72.666 4.16699 -99.999 12.5s-49.333 21 -66 38s-28.667 38.167 -36 63.5s-11 54.666 -11 87.999v275
c0 68 16 118.667 48 152s87 50 165 50z" />
    <glyph glyph-name="D" unicode="D" horiz-adv-x="571" 
d="M160 67c38.667 -4 69.666 -6 92.999 -6c50 0 90.5 14.5 121.5 43.5s46.5 72.167 46.5 129.5v177c0 62 -15 108.167 -45 138.5s-71 45.5 -123 45.5c-16 0 -31.667 -0.166992 -47 -0.5s-30.666 -0.833008 -45.999 -1.5v-526zM74.999 663
c22.667 1.33301 49.167 2.33301 79.5 3s64.833 1 103.5 1c79.333 0 140.5 -22.333 183.5 -67s64.5 -109.667 64.5 -195v-164c0 -81.333 -21.167 -143.833 -63.5 -187.5s-105.5 -65.5 -189.5 -65.5c-34 0 -64.333 0.5 -91 1.5s-55.667 2.5 -87 4.5v669z" />
    <glyph glyph-name="E" unicode="E" horiz-adv-x="485" 
d="M75 0v655h345v-77h-260v-207h240v-76h-240v-218h260v-77h-345z" />
    <glyph glyph-name="F" unicode="F" horiz-adv-x="485" 
d="M160 578v-207h196v-76h-196v-295h-85v655h345v-77h-260z" />
    <glyph glyph-name="G" unicode="G" horiz-adv-x="560" 
d="M283 -12c-39.333 0 -72.668 4.16895 -100.001 12.502s-49.333 21 -66 38s-28.667 38.167 -36 63.5s-11 54.666 -11 87.999v275c0 70.667 16.667 122 50 154s87.666 48 162.999 48c13.333 0 27.833 -0.666992 43.5 -2s31.167 -3.16602 46.5 -5.49902
s30.166 -4.83301 44.499 -7.5l38.5 -7l-2 -73c-9.33301 2 -20.666 4.16699 -33.999 6.5s-27.666 4.66602 -42.999 6.99902s-31.166 4.33301 -47.499 6s-31.833 2.5 -46.5 2.5c-46.667 0 -79.667 -9.33301 -99 -28s-29 -49.334 -29 -92.001v-290
c0 -42.667 9.66699 -73.5 29 -92.5s52.333 -28.5 99 -28.5c16.667 0 35.167 1.33301 55.5 4s40.833 6 61.5 10v221h-125v80h210v-353c-28 -8.66699 -59.833 -17 -95.5 -25s-71.167 -12 -106.5 -12z" />
    <glyph glyph-name="H" unicode="H" horiz-adv-x="580" 
d="M420 0v300h-260v-300h-85v655h85v-279h260v279h85v-655h-85z" />
    <glyph glyph-name="I" unicode="I" horiz-adv-x="235" 
d="M75 0v655h85v-655h-85z" />
    <glyph glyph-name="J" unicode="J" horiz-adv-x="312" 
d="M237 139c0 -51.333 -12.002 -89.334 -36.002 -114.001s-63 -37 -117 -37c-11.333 0 -23.666 0.833008 -36.999 2.5s-22.333 3.16699 -27 4.5v71c5.33301 -1.33301 14.833 -2.5 28.5 -3.5s26.834 -1.5 39.501 -1.5c20.667 0 36.5 4.83301 47.5 14.5
s16.5 25.834 16.5 48.501v531h85v-516z" />
    <glyph glyph-name="K" unicode="K" horiz-adv-x="550" 
d="M75 0v655h85v-316l244 316h95l-251 -317l277 -338h-109l-256 324v-324h-85z" />
    <glyph glyph-name="L" unicode="L" horiz-adv-x="445" 
d="M75 0v655h85v-580h260v-75h-345z" />
    <glyph glyph-name="M" unicode="M" horiz-adv-x="699" 
d="M546 0l-5 538l-139 -470h-105l-139 470l-5 -538h-83l6 655h126l148 -511l147 511h126l6 -655h-83z" />
    <glyph glyph-name="N" unicode="N" horiz-adv-x="582" 
d="M375 0l-216 553v-553h-84v655h136l212 -553v553h84v-655h-132z" />
    <glyph glyph-name="O" unicode="O" horiz-adv-x="576" 
d="M155 194c0 -42.667 11.167 -75.167 33.5 -97.5s55.5 -33.5 99.5 -33.5s77.167 11.167 99.5 33.5s33.5 54.833 33.5 97.5v267c0 42 -11 74.333 -33 97s-55.333 34 -100 34s-78 -11.167 -100 -33.5s-33 -54.5 -33 -96.5v-268zM70 452c0 32.667 4.16699 62.334 12.5 89.001
s21.166 49.334 38.499 68.001s39.833 33 67.5 43s60.834 15 99.501 15s71.834 -5 99.501 -15s50.167 -24.333 67.5 -43s30.166 -41.334 38.499 -68.001s12.5 -56.334 12.5 -89.001v-249c0 -33.333 -4.16699 -63.166 -12.5 -89.499s-21.166 -48.833 -38.499 -67.5
s-39.833 -33 -67.5 -43s-60.834 -15 -99.501 -15s-71.834 5 -99.501 15s-50.167 24.333 -67.5 43s-30.166 41.167 -38.499 67.5s-12.5 56.166 -12.5 89.499v249z" />
    <glyph glyph-name="P" unicode="P" horiz-adv-x="504" 
d="M75 0v662.001c25.333 1.33301 51.5 2.5 78.5 3.5s58.5 1.5 94.5 1.5c80 0 138.5 -16 175.5 -48s55.5 -76.667 55.5 -134v-24c0 -60.667 -18 -108.334 -54 -143.001s-92.333 -52 -169 -52c-14.667 0 -29.5 0.5 -44.5 1.5s-32.167 3.16699 -51.5 6.5v-274h-85zM160 347.001
c22.667 -3.33301 40.667 -5.49902 54 -6.49902s26 -1.5 38 -1.5c94.667 0 142 42 142 126v17c0 37.333 -11.667 65.666 -35 84.999s-61 29 -113 29c-22 0 -39.167 -0.166992 -51.5 -0.5s-23.833 -0.833008 -34.5 -1.5v-247z" />
    <glyph glyph-name="Q" unicode="Q" horiz-adv-x="576" 
d="M70 452c0 32.667 4.16602 62.335 12.499 89.002s21.166 49.334 38.499 68.001s39.833 33 67.5 43s60.834 15 99.501 15s71.834 -5 99.501 -15s50.167 -24.333 67.5 -43s30.166 -41.334 38.499 -68.001s12.5 -56.334 12.5 -89.001v-247c0 -46 -7 -83.667 -21 -113
s-36 -52.333 -66 -69l107 -29l2 -79h-19l-196 74c-4 -0.666992 -8 -1 -12 -1h-12c-39.333 0 -72.833 5 -100.5 15s-50.167 24.333 -67.5 43s-30.166 41.167 -38.499 67.5s-12.5 56.166 -12.5 89.499v249zM154.999 194.001c0 -42.667 11.167 -75.167 33.5 -97.5
s55.5 -33.5 99.5 -33.5c88.667 0 133 45.333 133 136v262c0 42 -11 74.333 -33 97s-55.333 34 -100 34s-78 -11.167 -100 -33.5s-33 -54.5 -33 -96.5v-268z" />
    <glyph glyph-name="R" unicode="R" horiz-adv-x="548" 
d="M248 667c40.667 0 75.5 -4.16797 104.5 -12.501s52.667 -20 71 -35s31.833 -33.167 40.5 -54.5s13 -45.333 13 -72v-26c0 -18 -2.83301 -35.667 -8.5 -53s-13.667 -33.666 -24 -48.999s-23 -29 -38 -41s-31.833 -21.333 -50.5 -28l167 -296h-95l-158 280h-62
c-14 0 -30 0.666992 -48 2v-282h-85v663c28 1.33301 56.667 2.33301 86 3s58.333 1 87 1zM246 595.999c-11.333 0 -25.1689 -0.166992 -41.502 -0.5s-31.166 -0.833008 -44.499 -1.5v-236c22.667 -1.33301 40.334 -2.33301 53.001 -3s24.667 -1 36 -1
c51.333 0 88 10.167 110 30.5s33 48.5 33 84.5v19c0 36 -11.167 63 -33.5 81s-59.833 27 -112.5 27z" />
    <glyph glyph-name="S" unicode="S" horiz-adv-x="456" 
d="M304 356c22 -7.33301 40.8301 -15.8291 56.4971 -25.4961s28.334 -21.334 38.001 -35.001s16.667 -29.5 21 -47.5s6.5 -39.333 6.5 -64v-19c0 -28.667 -3.83301 -54 -11.5 -76s-20.334 -40.5 -38.001 -55.5s-40.5 -26.333 -68.5 -34s-62 -11.5 -102 -11.5
c-16 0 -37 1.66699 -63 5s-53.667 8.33301 -83 15l2 77c27.333 -6.66699 53.5 -11.667 78.5 -15s46.167 -5 63.5 -5c51.333 0 87 7.83301 107 23.5s30 38.834 30 69.501v33c0 23.333 -5 41.166 -15 53.499s-28.333 22.833 -55 31.5l-103 34
c-23.333 7.33301 -42.833 15.666 -58.5 24.999s-28.167 20.666 -37.5 33.999s-16.166 29 -20.499 47s-6.5 39.333 -6.5 64v11c0 56.667 15.167 100.167 45.5 130.5s80.166 45.5 149.499 45.5c17.333 0 38.833 -1.5 64.5 -4.5s50.834 -6.83301 75.501 -11.5l-2 -75
c-23.333 4.66699 -47.166 8.5 -71.499 11.5s-46.5 4.5 -66.5 4.5c-40 0 -68.333 -7.83301 -85 -23.5s-25 -38.834 -25 -69.501v-26c0 -12 1 -22.167 3 -30.5s6 -15.833 12 -22.5s14.333 -12.5 25 -17.5s24.334 -10.167 41.001 -15.5z" />
    <glyph glyph-name="T" unicode="T" horiz-adv-x="515" 
d="M25 578v77h465v-77h-190v-578h-85v578h-190z" />
    <glyph glyph-name="U" unicode="U" horiz-adv-x="576" 
d="M501 655l-0.00195312 -447.999c0 -70.667 -17.667 -124.834 -53 -162.501s-88.666 -56.5 -159.999 -56.5c-69.333 0 -122.166 18 -158.499 54s-54.5 90.333 -54.5 163v450h85v-461c0 -44 11.167 -76.833 33.5 -98.5s53.833 -32.5 94.5 -32.5s72.167 10.833 94.5 32.5
s33.5 54.5 33.5 98.5v461h85z" />
    <glyph glyph-name="V" unicode="V" horiz-adv-x="530" 
d="M321 0h-112l-194 655h90l160 -573l160 573h90z" />
    <glyph glyph-name="W" unicode="W" horiz-adv-x="848" 
d="M674 0h-114l-136 558l-135 -558h-114l-150 655h90l120 -562l131 562h116l132 -562l119 562h90z" />
    <glyph glyph-name="X" unicode="X" horiz-adv-x="523" 
d="M113 0h-98l192 338l-180 317h102l137 -250l137 250h94l-178 -319l189 -336h-103l-146 268z" />
    <glyph glyph-name="Y" unicode="Y" horiz-adv-x="495" 
d="M290 225v-225h-85v225l-190 430h97l136 -340l137 340h95z" />
    <glyph glyph-name="Z" unicode="Z" horiz-adv-x="495" 
d="M45 0v67l296 511h-290v77h389v-67l-296 -511h296v-77h-395z" />
    <glyph glyph-name="bracketleft" unicode="[" 
d="M157 -116v900h205v-70h-120v-760h120v-70h-205z" />
    <glyph glyph-name="backslash" unicode="\" 
d="M320 0l-205 683h85l205 -683h-85z" />
    <glyph glyph-name="bracketright" unicode="]" 
d="M157 -116v70h120v760h-120v70h205v-900h-205z" />
    <glyph glyph-name="asciicircum" unicode="^" horiz-adv-x="495" 
d="M347 403l-100 201l-99 -201h-83l145 280h75l145 -280h-83z" />
    <glyph glyph-name="underscore" unicode="_" horiz-adv-x="610" 
d="M65 -185v65h480v-65h-480z" />
    <glyph glyph-name="grave" unicode="`" horiz-adv-x="385" 
d="M107 685h85l76 -139h-66z" />
    <glyph glyph-name="a" unicode="a" horiz-adv-x="469" 
d="M394 0l-80.9971 0.00292969v78c-39.333 -60 -83 -90 -131 -90c-38 0 -68.667 13.167 -92 39.5s-35 62.833 -35 109.5v28c0 20 3.5 38.667 10.5 56s17 32.166 30 44.499s28.833 22.166 47.5 29.499s39.667 11 63 11c14.667 0 31.667 -1.33301 51 -4
s36.666 -5.66699 51.999 -9v53c0 30 -6.5 51 -19.5 63s-33.167 18 -60.5 18c-10 0 -21 -0.5 -33 -1.5s-24 -2.33301 -36 -4l-35.5 -5l-30.5 -4.5v73c22 3.33301 45.667 6.66602 71 9.99902s46.666 5 63.999 5c57.333 0 99.166 -12.667 125.499 -38s39.5 -66.333 39.5 -123
v-339zM201.003 64.0029c17.333 0 35.667 7.66797 55 23.001s37 37.666 53 66.999v77c-13.333 2.66699 -27.666 4.5 -42.999 5.5s-28.333 1.5 -39 1.5c-28 0 -49.333 -7.5 -64 -22.5s-22 -35.5 -22 -61.5v-11c0 -25.333 5.66699 -44.833 17 -58.5s25.666 -20.5 42.999 -20.5z
" />
    <glyph glyph-name="b" unicode="b" horiz-adv-x="491" 
d="M160 423c17.333 24.667 37.168 43.667 59.501 57s46.166 20 71.499 20c41.333 0 73.333 -14.167 96 -42.5s34 -70.833 34 -127.5v-158c0 -60.667 -14 -106.5 -42 -137.5s-72.667 -46.5 -134 -46.5c-60 0 -103.333 15.167 -130 45.5s-40 75.833 -40 136.5v513h85v-260z
M271.002 424c-19.333 0 -39 -7.33301 -59 -22s-37.333 -34.667 -52 -60v-182c0 -33.333 7.66699 -58.5 23 -75.5s36 -25.5 62 -25.5c60.667 0 91 34.333 91 103v156c0 40 -6 67.667 -18 83s-27.667 23 -47 23z" />
    <glyph glyph-name="c" unicode="c" horiz-adv-x="404" 
d="M251 -12c-62.667 0 -108.5 15.5 -137.5 46.5s-43.5 76.167 -43.5 135.5v148c0 58.667 14.5 103.667 43.5 135s74.833 47 137.5 47c17.333 0 32.5 -0.833008 45.5 -2.5s30.5 -4.16699 52.5 -7.5l-2 -75c-17.333 3.33301 -32.833 5.83301 -46.5 7.5s-30.167 2.5 -49.5 2.5
c-32 0 -56 -8.66699 -72 -26s-24 -42 -24 -74v-161c0 -34 8.5 -59.333 25.5 -76s40.5 -25 70.5 -25c19.333 0 35.833 0.833008 49.5 2.5s29.167 4.16699 46.5 7.5l2 -75c-22 -3.33301 -39.5 -5.83301 -52.5 -7.5s-28.167 -2.5 -45.5 -2.5z" />
    <glyph glyph-name="d" unicode="d" horiz-adv-x="491" 
d="M70 333c0 52 12 92.833 36 122.5s59 44.5 105 44.5c21.333 0 42.833 -5.5 64.5 -16.5s40.167 -22.167 55.5 -33.5v233h85v-683h-81v79c-19.333 -30 -40.5 -52.667 -63.5 -68s-47.5 -23 -73.5 -23c-41.333 0 -73 14 -95 42s-33 69.667 -33 125v178zM218 64
c19.333 0 38.998 7.66797 58.998 23.001s38 37.666 54 66.999v220c-14 14.667 -30.5 26.667 -49.5 36s-36.167 14 -51.5 14c-23.333 0 -41.666 -8.16699 -54.999 -24.5s-20 -42.5 -20 -78.5v-155c0 -38 5.83301 -64.5 17.5 -79.5s26.834 -22.5 45.501 -22.5z" />
    <glyph glyph-name="e" unicode="e" horiz-adv-x="467" 
d="M70 321c0 58 13.8301 102.333 41.4971 133s70.5 46 128.5 46c56.667 0 99.5 -15.167 128.5 -45.5s43.5 -74.833 43.5 -133.5v-103h-257v-59c0 -34 8 -58.5 24 -73.5s41.667 -22.5 77 -22.5c10.667 0 22.334 0.666992 35.001 2s25.5 2.83301 38.5 4.5s25.333 3.5 37 5.5
s21.834 4 30.501 6l-4 -75c-22 -4 -45.5 -8 -70.5 -12s-47.167 -6 -66.5 -6c-67.333 0 -115.166 14.5 -143.499 43.5s-42.5 73.167 -42.5 132.5v157zM154.997 286h172v45c0 33.333 -8 58 -24 74s-37 24 -63 24c-25.333 0 -45.833 -8 -61.5 -24s-23.5 -39.667 -23.5 -71v-48z
" />
    <glyph glyph-name="f" unicode="f" horiz-adv-x="333" 
d="M105 539c0.666992 52.667 13.8311 91.833 39.498 117.5s62.5 38.5 110.5 38.5c12 0 23.833 -0.833008 35.5 -2.5s20.834 -3.16699 27.501 -4.5v-68c-9.33301 1.33301 -19 2.5 -29 3.5s-21 1.5 -33 1.5c-19.333 0 -35.166 -6.16699 -47.499 -18.5s-18.5 -30.5 -18.5 -54.5
v-64h90v-70h-90v-418h-85v418h-70v70h70v51z" />
    <glyph glyph-name="g" unicode="g" horiz-adv-x="486" 
d="M66 -102c21.333 -7.33301 45.833 -13.168 73.5 -17.501s52.834 -6.5 75.501 -6.5c26 0 47 1.16699 63 3.5s28.333 6 37 11s14.334 11.667 17.001 20s4 18.833 4 31.5v9c0 31.333 -16 48 -48 50l-150 10c-32 2 -56.333 11.167 -73 27.5s-25 37.833 -25 64.5v20
c0 30.667 15 57.334 45 80.001c-11.333 13.333 -19.5 29.833 -24.5 49.5s-7.5 43.5 -7.5 71.5v22c0 46 14.167 83.5 42.5 112.5s71.5 43.5 129.5 43.5c15.333 0 29.666 -1.16699 42.999 -3.5s25.666 -5.5 36.999 -9.5l156 2v-75l-85 3
c7.33301 -10.667 12.5 -22.667 15.5 -36s4.5 -26.666 4.5 -39.999v-22c0 -23.333 -3.66699 -45 -11 -65s-18.333 -37.167 -33 -51.5s-32.5 -25.5 -53.5 -33.5s-45.5 -12 -73.5 -12c-34.667 0 -63 3.33301 -85 10c-14.667 -12.667 -22 -26 -22 -40v-6
c0 -9.33301 3.33301 -17 10 -23s19.667 -9.66699 39 -11l149 -11c30.667 -2.66699 55.5 -14 74.5 -34s28.5 -45.667 28.5 -77v-37c0 -20 -2.83301 -37.833 -8.5 -53.5s-16 -28.667 -31 -39s-35.667 -18.333 -62 -24s-60.5 -8.5 -102.5 -8.5c-19.333 0 -42.5 1.66699 -69.5 5
s-52.5 7.66602 -76.5 12.999zM138 312.998c0 -18 1.16699 -32.5 3.5 -43.5s6.5 -19.5 12.5 -25.5s14.167 -10.167 24.5 -12.5s23.833 -3.5 40.5 -3.5c31.333 0 54.5 7.33301 69.5 22s22.5 35.667 22.5 63v30c0 15.333 -1.16699 29 -3.5 41s-5.16602 22.667 -8.49902 32
c-7.33301 3.33301 -17.833 6.33301 -31.5 9s-27.834 4 -42.501 4c-28 0 -49.5 -7 -64.5 -21s-22.5 -34.667 -22.5 -62v-33z" />
    <glyph glyph-name="h" unicode="h" horiz-adv-x="491" 
d="M75 0l0.00195312 683h85v-260c17.333 24.667 36.666 43.667 57.999 57s44.666 20 69.999 20c42.667 0 75.5 -14.333 98.5 -43s34.5 -70 34.5 -124v-333h-85v321c0 36.667 -6 62.5 -18 77.5s-27.667 22.5 -47 22.5s-39 -7.33301 -59 -22s-37.333 -34.667 -52 -60v-339h-85
z" />
    <glyph glyph-name="i" unicode="i" horiz-adv-x="245" 
d="M80 0v488h85v-488h-85zM178 620c0 -30 -18.667 -45 -56 -45c-36.667 0 -55 15 -55 45v29c0 30.667 18.333 46 55 46c37.333 0 56 -15.333 56 -46v-29z" />
    <glyph glyph-name="j" unicode="j" horiz-adv-x="235" 
d="M75 488l85 0.000976562v-536c0 -50 -12.167 -87.333 -36.5 -112s-63.166 -37 -116.499 -37c-11.333 0 -23 0.666992 -35 2s-20.333 2.66602 -25 3.99902v71c5.33301 -0.666992 14.166 -1.5 26.499 -2.5s24.833 -1.5 37.5 -1.5c42.667 0 64 23.667 64 71v541zM173 620.001
c0 -30 -18.667 -45 -56 -45c-36.667 0 -55 15 -55 45v29c0 30.667 18.333 46 55 46c37.333 0 56 -15.333 56 -46v-29z" />
    <glyph glyph-name="k" unicode="k" horiz-adv-x="452" 
d="M75 0v683h85v-409l160 214h95l-166 -214l178 -274h-102l-165 262v-262h-85z" />
    <glyph glyph-name="l" unicode="l" horiz-adv-x="235" 
d="M75 0v683h85v-683h-85z" />
    <glyph glyph-name="m" unicode="m" horiz-adv-x="742" 
d="M75 0l0.00585938 488h80v-73c17.333 27.333 37.166 48.333 59.499 63s46.166 22 71.499 22c61.333 0 101.333 -30.667 120 -92c18 30 38.5 52.833 61.5 68.5s47.833 23.5 74.5 23.5c42 0 74.167 -14.333 96.5 -43s33.5 -70 33.5 -124v-333h-85v321
c0 36 -5.66699 61.667 -17 77s-26.333 23 -45 23s-37.834 -7.33301 -57.501 -22s-36.834 -34.667 -51.501 -60v-339h-85v321c0 36 -5.66699 61.667 -17 77s-26.333 23 -45 23s-37.834 -7.33301 -57.501 -22s-36.834 -34.667 -51.501 -60v-339h-85z" />
    <glyph glyph-name="n" unicode="n" horiz-adv-x="491" 
d="M75 0v488h80v-73c17.333 27.333 37.333 48.333 60 63s47 22 73 22c42.667 0 75.5 -14.333 98.5 -43s34.5 -70 34.5 -124v-333h-85v321c0 36 -6 61.667 -18 77s-27.667 23 -47 23s-39 -7.33301 -59 -22s-37.333 -34.667 -52 -60v-339h-85z" />
    <glyph glyph-name="o" unicode="o" horiz-adv-x="492" 
d="M337 326c0 34 -8 59.667 -24 77s-38.333 26 -67 26s-51 -8.83301 -67 -26.5s-24 -43.5 -24 -77.5v-162c0 -34 8 -59.833 24 -77.5s38.333 -26.5 67 -26.5s51 8.83301 67 26.5s24 43.5 24 77.5v163zM422 170c0 -56.667 -14 -101.167 -42 -133.5s-72.667 -48.5 -134 -48.5
s-106 16.167 -134 48.5s-42 76.833 -42 133.5v148c0 56.667 14 101.167 42 133.5s72.667 48.5 134 48.5s106 -16.167 134 -48.5s42 -76.833 42 -133.5v-148z" />
    <glyph glyph-name="p" unicode="p" horiz-adv-x="490" 
d="M75 -185l0.000976562 673h80v-71c17.333 26.667 37.166 47.167 59.499 61.5s46.5 21.5 72.5 21.5c42 0 74.667 -14 98 -42s35 -69.667 35 -125v-178c0 -52.667 -13.5 -93.667 -40.5 -123s-63.5 -44 -109.5 -44c-18.667 0 -38 3.66699 -58 11s-37.333 15.333 -52 24v-208
h-85zM270.001 424c-19.333 0 -38.833 -7.00098 -58.5 -21.001s-36.834 -33.667 -51.501 -59v-245c14.667 -11.333 30.334 -20.166 47.001 -26.499s32 -9.5 46 -9.5c54.667 0 82 34.667 82 104v154c0 38 -6 64.667 -18 80s-27.667 23 -47 23z" />
    <glyph glyph-name="q" unicode="q" horiz-adv-x="491" 
d="M70 333c0 52 12.001 92.833 36.001 122.5s59 44.5 105 44.5c22.667 0 45.167 -6 67.5 -18s41.166 -23.667 56.499 -35v41h81v-673h-85v258c-19.333 -28 -40 -49.167 -62 -63.5s-45.667 -21.5 -71 -21.5c-41.333 0 -73 14 -95 42s-33 69.667 -33 125v178zM218.001 64
c19.333 0 38.998 7.66797 58.998 23.001s38 37.666 54 66.999v220c-14 14.667 -30.5 26.667 -49.5 36s-36.167 14 -51.5 14c-23.333 0 -41.666 -8.16699 -54.999 -24.5s-20 -42.5 -20 -78.5v-155c0 -38 5.83301 -64.5 17.5 -79.5s26.834 -22.5 45.501 -22.5z" />
    <glyph glyph-name="r" unicode="r" horiz-adv-x="345" 
d="M75 0l0.000976562 488.001h80v-73c17.333 27.333 37.333 48.333 60 63s47 22 73 22c9.33301 0 16.666 -0.666992 21.999 -2v-96c-5.33301 1.33301 -10.833 2.16602 -16.5 2.49902s-13.167 0.5 -22.5 0.5c-21.333 0 -41.5 -5.5 -60.5 -16.5s-35.833 -28.833 -50.5 -53.5
v-335h-85z" />
    <glyph glyph-name="s" unicode="s" horiz-adv-x="389" 
d="M135 234c-30 11.333 -52.5 26.833 -67.5 46.5s-22.5 42.167 -22.5 67.5v13c0 46 12.833 80.667 38.5 104s69.167 35 130.5 35c15.333 0 31.166 -0.833008 47.499 -2.5s35.5 -4.83398 57.5 -9.50098l-2 -72c-35.333 8 -68.333 12 -99 12c-35.333 0 -59 -4.83301 -71 -14.5
s-18 -24.5 -18 -44.5v-8c0 -13.333 3.33301 -23.666 10 -30.999s18.667 -14.666 36 -21.999l94 -39c29.333 -12 51.666 -28.333 66.999 -49s23 -43.334 23 -68.001v-24c0 -46 -13.167 -80.833 -39.5 -104.5s-71.166 -35.5 -134.499 -35.5c-38 0 -80.333 5.33301 -127 16
l2 75c42.667 -10.667 84.334 -16 125.001 -16c36 0 60 4.5 72 13.5s18 23.5 18 43.5v14c0 15.333 -3.33301 28 -10 38s-17.667 18 -33 24z" />
    <glyph glyph-name="t" unicode="t" horiz-adv-x="343" 
d="M85 418h-70.002v70h70l16 130h69v-130h130v-70h-130v-286c0 -25.333 5.33301 -43.5 16 -54.5s26.667 -16.5 48 -16.5c14.667 0 29.834 0.833008 45.501 2.5s28.5 3.5 38.5 5.5v-71c-11.333 -2.66699 -23.666 -5 -36.999 -7s-27.666 -3 -42.999 -3
c-52.667 0 -91.334 11.667 -116.001 35s-37 62 -37 116v279z" />
    <glyph glyph-name="u" unicode="u" horiz-adv-x="496" 
d="M421 488v-487.999h-80v70c-18 -26.667 -38.167 -47 -60.5 -61s-46.5 -21 -72.5 -21c-40.667 0 -73 13.667 -97 41s-36 69.333 -36 126v333h85v-318c0 -36.667 6 -63 18 -79s27.667 -24 47 -24s38.833 7.16699 58.5 21.5s37.167 34.166 52.5 59.499v340h85z" />
    <glyph glyph-name="v" unicode="v" horiz-adv-x="442" 
d="M276 0h-111l-150 488h90l116 -426l116 426h90z" />
    <glyph glyph-name="w" unicode="w" horiz-adv-x="688" 
d="M553 0h-107l-102 414l-103 -414h-107l-109 488h90l76 -413l98 413h110l97 -413l77 413h90z" />
    <glyph glyph-name="x" unicode="x" horiz-adv-x="461" 
d="M230 190l-108 -190h-97l151 252l-141 236h97l98 -174l98 174h97l-141 -236l152 -252h-97z" />
    <glyph glyph-name="y" unicode="y" horiz-adv-x="446" 
d="M207 -185h-85l64 185h-32l-139 488h93l105 -427l130 427h88z" />
    <glyph glyph-name="z" unicode="z" horiz-adv-x="426" 
d="M45 0v65l224 348h-219v75h321v-65l-223 -348h223v-75h-326z" />
    <glyph glyph-name="braceleft" unicode="{" 
d="M208 219c0 30.667 -4.83301 51.665 -14.5 62.998s-26.5 17 -50.5 17h-25v70h25c24 0 40.833 5.5 50.5 16.5s14.5 32.167 14.5 63.5v181c0 31.333 2.5 57.166 7.5 77.499s14 36.333 27 48s30.5 19.834 52.5 24.501s50 7 84 7v-70c-17.333 0 -31.5 -1 -42.5 -3
s-19.833 -5.66699 -26.5 -11s-11.167 -12.666 -13.5 -21.999s-3.5 -21.666 -3.5 -36.999v-195c0 -34 -4.66699 -60 -14 -78s-24 -30.333 -44 -37c20.667 -7.33301 35.5 -19.833 44.5 -37.5s13.5 -43.5 13.5 -77.5v-179c0 -18.667 1 -33.834 3 -45.501s6 -20.667 12 -27
s14.667 -10.666 26 -12.999s26.333 -3.5 45 -3.5v-70c-33.333 0 -61 2.5 -83 7.5s-39.5 13.667 -52.5 26s-22.167 28.833 -27.5 49.5s-8 47 -8 79v176z" />
    <glyph glyph-name="bar" unicode="|" 
d="M217 -112v910h85v-910h-85z" />
    <glyph glyph-name="braceright" unicode="}" 
d="M311 43c0 -32 -2.66699 -58.3311 -8 -78.998s-14.5 -37.167 -27.5 -49.5s-30.5 -21 -52.5 -26s-49.667 -7.5 -83 -7.5v70c18.667 0 33.667 1.16699 45 3.5s20 6.66602 26 12.999s10 15.333 12 27s3 26.834 3 45.501v179c0 34 4.5 59.833 13.5 77.5
s23.833 30.167 44.5 37.5c-20 6.66699 -34.667 19 -44 37s-14 44 -14 78v195c0 15.333 -1.16699 27.666 -3.5 36.999s-6.83301 16.666 -13.5 21.999s-15.5 9 -26.5 11s-25.167 3 -42.5 3v70c34 0 62 -2.33301 84 -7s39.5 -12.834 52.5 -24.501s22 -27.667 27 -48
s7.5 -46.166 7.5 -77.499v-181c0 -31.333 4.83301 -52.5 14.5 -63.5s26.5 -16.5 50.5 -16.5h25v-70h-25c-24 0 -40.833 -5.66699 -50.5 -17s-14.5 -32.333 -14.5 -63v-176z" />
    <glyph glyph-name="asciitilde" unicode="~" 
d="M437 279c-8 -5.33301 -17.334 -9.99805 -28.001 -13.998c-9.33301 -3.33301 -20 -6.5 -32 -9.5s-25.333 -4.5 -40 -4.5c-18 0 -33 1.5 -45 4.5s-23.333 6.16699 -34 9.5s-22 6.5 -34 9.5s-26.333 4.5 -43 4.5c-9.33301 0 -19.666 -1.33301 -30.999 -4
s-22 -5.66699 -32 -9c-12 -3.33301 -23.667 -7.33301 -35 -12v70c8 5.33301 17.333 10 28 14c9.33301 3.33301 20 6.5 32 9.5s25.333 4.5 40 4.5c18 0 33 -1.5 45 -4.5s23.5 -6.16699 34.5 -9.5s22.333 -6.5 34 -9.5s25.834 -4.5 42.501 -4.5
c9.33301 0 19.666 1.16699 30.999 3.5s22 5.16602 32 8.49902c12 3.33301 23.667 7.66602 35 12.999v-70z" />
    <glyph glyph-name="nonbreakingspace" unicode="&#xa0;" horiz-adv-x="300" 
 />
    <glyph glyph-name="exclamdown" unicode="&#xa1;" horiz-adv-x="211" 
d="M65 310.012l-7 -494.97h95l-7 494.97h-81zM161 477.002c0 29.998 -18.667 44.9971 -56 44.9971c-36.667 0 -55 -14.999 -55 -44.9971v-28.998c0 -30.665 18.333 -45.9971 55 -45.9971c37.333 0 56 15.332 56 45.9971v28.998z" />
    <glyph glyph-name="cent" unicode="&#xa2;" 
d="M250 -88v81c-44.667 7.33301 -77.5 26 -98.5 56s-31.5 70.333 -31.5 121v148c0 50 10.5 90 31.5 120s53.833 49 98.5 57v81h75v-77c11.333 -0.666992 22.333 -1.66699 33 -3s24.334 -3.33301 41.001 -6l-2 -75c-17.333 3.33301 -32.833 5.83301 -46.5 7.5
s-30.167 2.5 -49.5 2.5c-32 0 -56 -8.66699 -72 -26s-24 -42 -24 -74v-161c0 -34 8.5 -59.333 25.5 -76s40.5 -25 70.5 -25c19.333 0 35.833 0.833008 49.5 2.5s29.167 4.16699 46.5 7.5l2 -75c-16.667 -2.66699 -30.334 -4.66699 -41.001 -6s-21.667 -2.33301 -33 -3v-77
h-75z" />
    <glyph glyph-name="sterling" unicode="&#xa3;" 
d="M226 375l95.002 0.000976562v-70h-95v-121c0 -28.667 -3.5 -51.5 -10.5 -68.5s-17.167 -30.833 -30.5 -41.5h263v-74h-347v60c14 17.333 24.167 34.5 30.5 51.5s9.5 35.167 9.5 54.5v139h-70v70h70v82c0 53.333 13.5 92.666 40.5 117.999s69.167 38 126.5 38
c15.333 0 31.666 -1.5 48.999 -4.5s32.666 -6.5 45.999 -10.5v-68c-10 3.33301 -22.667 6.33301 -38 9s-30 4 -44 4c-36 0 -60.833 -6.5 -74.5 -19.5s-20.5 -33.5 -20.5 -61.5v-87z" />
    <glyph glyph-name="currency" unicode="&#xa4;" 
d="M419 93l-62.001 63c-27.333 -16 -60.333 -24 -99 -24c-38 0 -70.333 7.33301 -97 22l-60 -61l-56 56l62 61c-7.33301 13.333 -13 27.333 -17 42s-6 31.667 -6 51v20c0 17.333 1.5 32.833 4.5 46.5s7.83301 27.167 14.5 40.5l-58 57l56 56l54 -55
c28.667 17.333 63 26 103 26c40.667 0 75.667 -9.33301 105 -28l56 57l56 -56l-61 -60c11.333 -23.333 17 -51.333 17 -84v-20c0 -18.667 -1.66699 -35 -5 -49s-8.66602 -27.667 -15.999 -41l65 -64zM348.999 323c0 27.333 -6.83301 50.5 -20.5 69.5
s-37.167 28.5 -70.5 28.5s-57 -9.33301 -71 -28s-21 -42 -21 -70v-20c0 -28 7 -51.5 21 -70.5s37.667 -28.5 71 -28.5s56.833 9.5 70.5 28.5s20.5 42.5 20.5 70.5v20z" />
    <glyph glyph-name="yen" unicode="&#xa5;" 
d="M302 78v-78h-85v78h-95v70h95v41h-95v70h66l-161 342h95l138 -321l137 321h95l-161 -342h65v-70h-94v-41h94v-70h-94z" />
    <glyph glyph-name="brokenbar" unicode="&#xa6;" 
d="M217 408v393h85v-393h-85zM217 -115v393h85v-393h-85z" />
    <glyph glyph-name="section" unicode="&#xa7;" horiz-adv-x="403" 
d="M271 46c0 17.333 -2.99902 30.9971 -8.99902 40.9971s-16.667 17.667 -32 23l-107 37c-39.333 13.333 -67.166 29.333 -83.499 48s-24.5 43 -24.5 73v24c0 17.333 2.5 33.5 7.5 48.5s11.833 28.167 20.5 39.5s19 20.5 31 27.5s25 11.5 39 13.5
c-20 7.33301 -36.333 20.333 -49 39s-19 41.334 -19 68.001v28c0 46 12.5 80.667 37.5 104s68.167 35 129.5 35c16 0 31.833 -0.833008 47.5 -2.5s34.5 -4.83398 56.5 -9.50098l-2 -71c-17.333 4 -34 7 -50 9s-32 3 -48 3c-32.667 0 -54.834 -4.83301 -66.501 -14.5
s-17.5 -24.834 -17.5 -45.501v-33c0 -14 3 -25.167 9 -33.5s16.667 -15.5 32 -21.5l107 -41c38.667 -14.667 66.334 -32 83.001 -52s25 -42.667 25 -68v-31c0 -30 -8.16699 -56.167 -24.5 -78.5s-39.5 -36.5 -69.5 -42.5c19.333 -7.33301 34.833 -20.166 46.5 -38.499
s17.5 -40.166 17.5 -65.499v-38c0 -46.667 -13.333 -81.667 -40 -105s-71.667 -35 -135 -35c-22.667 0 -43.334 1.33301 -62.001 4s-39 6.33398 -61 11.001l2 75c17.333 -4 35.666 -7.5 54.999 -10.5s41.333 -4.5 66 -4.5c34.667 0 58 4.33301 70 13s18 23.334 18 44.001v33
zM203.001 377.997c-33.333 -0.666992 -58.5 -9 -75.5 -25s-25.5 -35.667 -25.5 -59v-25c0 -11.333 4.16699 -21 12.5 -29s24.5 -16 48.5 -24l46 -15c30.667 1.33301 53.667 9.5 69 24.5s23 33.833 23 56.5v23c0 29.333 -20.333 50 -61 62z" />
    <glyph glyph-name="dieresis" unicode="&#xa8;" horiz-adv-x="431" 
d="M184 621c0 -29.333 -18.333 -43.999 -55 -43.999c-17.333 0 -30.666 3.83301 -39.999 11.5s-14 18.5 -14 32.5v29c0 15.333 4.66699 26.666 14 33.999s22.666 11 39.999 11c36.667 0 55 -15 55 -45v-29zM356 621.001c0 -29.333 -18.333 -44 -55 -44
c-36 0 -54 14.667 -54 44v29c0 30 18 45 54 45c36.667 0 55 -15 55 -45v-29z" />
    <glyph glyph-name="copyright" unicode="&#xa9;" horiz-adv-x="646" 
d="M505 416c0 40 -15.667 72.333 -47 97s-76.333 37 -135 37s-103.667 -12.5 -135 -37.5s-47 -57.5 -47 -97.5v-229c0 -40 15.667 -72.5 47 -97.5s76.333 -37.5 135 -37.5s103.667 12.5 135 37.5s47 57.5 47 97.5v230zM576 197c0 -30.667 -4.66699 -58.834 -14 -84.501
s-24.333 -48 -45 -67s-47 -33.833 -79 -44.5s-70.333 -16 -115 -16c-45.333 0 -83.833 5.33301 -115.5 16s-57.834 25.5 -78.501 44.5s-35.667 41.333 -45 67s-14 53.834 -14 84.501v207c0 30.667 4.66699 58.834 14 84.501s24.333 48 45 67s46.834 33.833 78.501 44.5
s70.167 16 115.5 16c44.667 0 83 -5.33301 115 -16s58.333 -25.5 79 -44.5s35.667 -41.333 45 -67s14 -53.834 14 -84.501v-207zM337 129c-92 0 -138.001 49.332 -138.001 147.999v56c0 48 11.5 84.5 34.5 109.5s57.5 37.5 103.5 37.5c12.667 0 25.834 -0.666992 39.501 -2
s26.5 -3 38.5 -5l-2 -66c-12.667 1.33301 -24.834 2.5 -36.501 3.5s-24.834 1.5 -39.501 1.5c-17.333 0 -31.166 -6.16699 -41.499 -18.5s-15.5 -32.5 -15.5 -60.5v-55c0 -27.333 5.16699 -47.666 15.5 -60.999s24.166 -20 41.499 -20c14.667 0 27.834 0.5 39.501 1.5
s23.834 2.16699 36.501 3.5l2 -66c-17.333 -2.66699 -31.5 -4.5 -42.5 -5.5s-22.833 -1.5 -35.5 -1.5z" />
    <glyph glyph-name="ordfeminine" unicode="&#xaa;" 
d="M429 226l-80.9971 0.000976562v78c-39.333 -60 -83 -90 -131 -90c-38.667 0 -69.5 12 -92.5 36s-34.5 56.667 -34.5 98v28c0 17.333 3.33301 33.666 10 48.999s16.5 28.833 29.5 40.5s28.833 20.834 47.5 27.501s40 10 64 10c14.667 0 31.667 -1.33301 51 -4
s36.666 -5.66699 51.999 -9v26c0 30 -6.5 51 -19.5 63s-33.167 18 -60.5 18c-10 0 -21 -0.5 -33 -1.5s-24 -2.33301 -36 -4l-35.5 -5l-30.5 -4.5v70c22 3.33301 45.667 6.66602 71 9.99902s46.666 5 63.999 5c57.333 0 99.166 -12.667 125.499 -38s39.5 -66.333 39.5 -123
v-280zM90.0029 0.000976562v73h339v-73h-339zM236.003 290.001c17.333 0 35.667 5.66699 55 17s37 31 53 59v62c-13.333 2.66699 -27.666 4.5 -42.999 5.5s-28.333 1.5 -39 1.5c-28 0 -49.333 -6.33301 -64 -19s-22 -29.667 -22 -51v-11c0 -20 5.66699 -35.667 17 -47
s25.666 -17 42.999 -17z" />
    <glyph glyph-name="guillemotleft" unicode="&#xab;" horiz-adv-x="488" 
d="M253 488l-93 -170l93 -170h-88l-100 170l100 170h88zM423 488l-93 -170l93 -170h-88l-100 170l100 170h88z" />
    <glyph glyph-name="logicalnot" unicode="&#xac;" 
d="M364 113v152h-285v70h361v-222h-76z" />
    <glyph glyph-name="uni00AD" unicode="&#xad;" horiz-adv-x="350" 
d="M65 263v65h220v-65h-220z" />
    <glyph glyph-name="registered" unicode="&#xae;" horiz-adv-x="536" 
d="M461 479c0 -56 -14.667 -100.333 -44 -133s-79 -49 -149 -49s-119.667 16.333 -149 49s-44 77 -44 133v34c0 56 14.667 100.333 44 133s79 49 149 49s119.667 -16.333 149 -49s44 -77 44 -133v-34zM410 523c0 42 -10.833 73.332 -32.5 93.999s-58.167 31 -109.5 31
s-87.833 -10.667 -109.5 -32s-32.5 -52.666 -32.5 -93.999v-52c0 -41.333 10.833 -72.666 32.5 -93.999s58.167 -32 109.5 -32s87.833 10.667 109.5 32s32.5 52.666 32.5 93.999v53zM195 380.999l-0.000976562 233c13.333 0.666992 26.833 1.16699 40.5 1.5
s24.834 0.5 33.501 0.5c34 0 57.667 -6.5 71 -19.5s20 -29.833 20 -50.5v-11c0 -14 -4.16699 -26.5 -12.5 -37.5s-19.5 -19.5 -33.5 -25.5l54 -91h-50l-48 84h-32v-84h-43zM271.999 575.999c-3.33301 0 -8.83203 -0.166992 -16.499 -0.5s-13.5 -0.833008 -17.5 -1.5v-68
c7.33301 -0.666992 14 -1 20 -1h16c15.333 0 26.166 2.83301 32.499 8.5s9.5 13.167 9.5 22.5v9c0 10.667 -3.33301 18.5 -10 23.5s-18 7.5 -34 7.5z" />
    <glyph glyph-name="macron" unicode="&#xaf;" horiz-adv-x="385" 
d="M85 606v75h215v-75h-215z" />
    <glyph glyph-name="degree" unicode="&#xb0;" horiz-adv-x="600" 
d="M408 500c0 -56.667 -13.667 -99.667 -41 -129s-68.666 -44 -123.999 -44s-96.833 14.667 -124.5 44s-41.5 72.333 -41.5 129v22c0 56.667 13.833 99.667 41.5 129s69.167 44 124.5 44s96.666 -14.667 123.999 -44s41 -72.333 41 -129v-22zM327 522
c0 35.333 -7.16895 61.166 -21.502 77.499s-35.166 24.5 -62.499 24.5s-48.333 -8.16699 -63 -24.5s-22 -42.166 -22 -77.499v-22c0 -35.333 7.33301 -61.166 22 -77.499s35.667 -24.5 63 -24.5c26.667 0 47.334 8.16699 62.001 24.5s22 42.166 22 77.499v22z" />
    <glyph glyph-name="plusminus" unicode="&#xb1;" 
d="M81 0v70h356v-70h-356zM298 265v-152h-76v152h-140v71h140v152h76v-152h140v-71h-140z" />
    <glyph glyph-name="twosuperior" unicode="&#xb2;" horiz-adv-x="390" 
d="M174 546c-15.333 0 -32.167 -1.66406 -50.5 -4.99707s-34.166 -7.33301 -47.499 -12v65c16.667 4.66699 33.834 8.5 51.501 11.5s33.167 4.5 46.5 4.5c52.667 0 90.5 -9.33301 113.5 -28s34.5 -45.334 34.5 -80.001v-18c0 -22.667 -4.33301 -43.834 -13 -63.501
s-25.334 -42.834 -50.001 -69.501l-97 -104h161v-66h-256v60l148 170c6.66699 7.33301 12 13.833 16 19.5s7.16699 11.167 9.5 16.5s3.83301 10.833 4.5 16.5s1 12.167 1 19.5v16c0 16 -5.33301 27.833 -16 35.5s-29.334 11.5 -56.001 11.5z" />
    <glyph glyph-name="threesuperior" unicode="&#xb3;" horiz-adv-x="390" 
d="M169 549c-14.667 0 -30.834 -1.16895 -48.501 -3.50195s-33.167 -4.5 -46.5 -6.5v62c16.667 2.66699 33.334 4.83398 50.001 6.50098s31.667 2.5 45 2.5c46.667 0 81.167 -9.66699 103.5 -29s33.5 -45.666 33.5 -78.999v-7c0 -22 -4.66699 -40.333 -14 -55
s-24.666 -27 -45.999 -37c22.667 -9.33301 40 -22.833 52 -40.5s18 -37.834 18 -60.501v-7c0 -36 -12.167 -65.333 -36.5 -88s-60.5 -34 -108.5 -34c-12.667 0 -27.834 0.833008 -45.501 2.5s-34.834 3.83398 -51.501 6.50098v61c13.333 -2 29.5 -3.83301 48.5 -5.5
s35.833 -2.5 50.5 -2.5c22 0 38.167 5 48.5 15s15.5 23.667 15.5 41v13c0 21.333 -5.66699 37.333 -17 48s-31 16 -59 16h-58v59h58c25.333 0 43 5 53 15s15 25.667 15 47v13c0 16.667 -4.66699 28.667 -14 36s-24.666 11 -45.999 11z" />
    <glyph glyph-name="acute" unicode="&#xb4;" horiz-adv-x="311" 
d="M141 546h-66l76 139h85z" />
    <glyph glyph-name="mu" unicode="&#xb5;" 
d="M87 -185l-0.000976562 673.001h85v-318c0 -36.667 6 -63 18 -79s27.667 -24 47 -24s38.833 7.16699 58.5 21.5s37.167 34.166 52.5 59.499v340h85v-488h-80v70c-18 -26.667 -37.667 -47 -59 -61s-42.666 -21 -63.999 -21c-24 0 -43.333 4.66699 -58 14v-187h-85z" />
    <glyph glyph-name="paragraph" unicode="&#xb6;" horiz-adv-x="546" 
d="M280 683v-868h-86v498h-50c-40 0 -70.667 10 -92 30s-32 50 -32 90v127c0 38 10.167 68 30.5 90s51.5 33 93.5 33h136zM471 683v-868h-86v868h86zM102 458c0 -26.667 4 -45 12 -55s21.333 -15 40 -15h40v222h-40c-18.667 0 -32 -4.83301 -40 -14.5s-12 -28.167 -12 -55.5
v-82z" />
    <glyph glyph-name="periodcentered" unicode="&#xb7;" horiz-adv-x="221" 
d="M166 234c0 -30 -18.667 -45 -56 -45c-36.667 0 -55 15 -55 45v29c0 30.667 18.333 46 55 46c37.333 0 56 -15.333 56 -46v-29z" />
    <glyph glyph-name="cedilla" unicode="&#xb8;" horiz-adv-x="299" 
d="M190 -120c0 -51.333 -31.668 -76.999 -95.001 -76.999c-8 0 -15.833 0.5 -23.5 1.5l-25.5 3.5v53c7.33301 -1.33301 13.833 -2.33301 19.5 -3s11.167 -1 16.5 -1c14.667 0 25.167 2.16699 31.5 6.5s9.5 10.166 9.5 17.499v13c-0.666992 10 -3.66699 16.833 -9 20.5
s-13.666 5.5 -24.999 5.5h-30v21l27 87h63l-21 -69h10c14 0 26.167 -5.83301 36.5 -17.5s15.5 -27.167 15.5 -46.5v-15z" />
    <glyph glyph-name="onesuperior" unicode="&#xb9;" horiz-adv-x="390" 
d="M79 181v66h92v279l-98 -39l-15 67l128 48h65v-355h80v-66h-252z" />
    <glyph glyph-name="ordmasculine" unicode="&#xba;" 
d="M89 0v73h342v-73h-342zM351 493c0 34 -8 59.667 -24 77s-38.333 26 -67 26s-51 -8.83301 -67 -26.5s-24 -43.5 -24 -77.5v-102c0 -34 8 -59.833 24 -77.5s38.333 -26.5 67 -26.5s51 8.83301 67 26.5s24 43.5 24 77.5v103zM436 397
c0 -60.667 -14.833 -106.167 -44.5 -136.5s-73.5 -45.5 -131.5 -45.5c-57.333 0 -101 15.167 -131 45.5s-45 75.833 -45 136.5v88c0 58 14.167 102.833 42.5 134.5s72.833 47.5 133.5 47.5s105.167 -15.833 133.5 -47.5s42.5 -76.5 42.5 -134.5v-88z" />
    <glyph glyph-name="guillemotright" unicode="&#xbb;" horiz-adv-x="488" 
d="M323 488l100 -170l-100 -170h-88l93 170l-93 170h88zM153 488l100 -170l-100 -170h-88l93 170l-93 170h88z" />
    <glyph glyph-name="onequarter" unicode="&#xbc;" horiz-adv-x="1019" 
d="M311 0l305 601h83l-305 -601h-83zM838 421l-93 -267h109v132h76v-132h56v-64h-56v-90h-77v90h-171l-20 42l104 289h72zM79 181v66h92v279l-98 -39l-15 67l128 48h65v-355h80v-66h-252z" />
    <glyph glyph-name="onehalf" unicode="&#xbd;" horiz-adv-x="1011" 
d="M311 0l305 601h83l-305 -601h-83zM795 365c-15.333 0 -32.167 -1.66406 -50.5 -4.99707s-34.166 -7.33301 -47.499 -12v65c16.667 4.66699 33.834 8.5 51.501 11.5s33.167 4.5 46.5 4.5c52.667 0 90.5 -9.33301 113.5 -28s34.5 -45.334 34.5 -80.001v-18
c0 -22.667 -4.33301 -43.834 -13 -63.501s-25.334 -42.834 -50.001 -69.501l-97 -104h161v-66h-256v60l148 170c6.66699 7.33301 12 13.833 16 19.5s7.16699 11.167 9.5 16.5s3.83301 10.833 4.5 16.5s1 12.167 1 19.5v16c0 16 -5.33301 27.833 -16 35.5
s-29.334 11.5 -56.001 11.5zM78.999 181.003v66h92v279l-98 -39l-15 67l128 48h65v-355h80v-66h-252z" />
    <glyph glyph-name="threequarters" unicode="&#xbe;" horiz-adv-x="1000" 
d="M292 0l305 601h83l-305 -601h-83zM819 421l-93 -267h109v132h76v-132h56v-64h-56v-90h-77v90h-171l-20 42l104 289h72zM169 549c-14.667 0 -30.834 -1.16895 -48.501 -3.50195s-33.167 -4.5 -46.5 -6.5v62c16.667 2.66699 33.334 4.83398 50.001 6.50098
s31.667 2.5 45 2.5c46.667 0 81.167 -9.66699 103.5 -29s33.5 -45.666 33.5 -78.999v-7c0 -22 -4.66699 -40.333 -14 -55s-24.666 -27 -45.999 -37c22.667 -9.33301 40 -22.833 52 -40.5s18 -37.834 18 -60.501v-7c0 -36 -12.167 -65.333 -36.5 -88s-60.5 -34 -108.5 -34
c-12.667 0 -27.834 0.833008 -45.501 2.5s-34.834 3.83398 -51.501 6.50098v61c13.333 -2 29.5 -3.83301 48.5 -5.5s35.833 -2.5 50.5 -2.5c22 0 38.167 5 48.5 15s15.5 23.667 15.5 41v13c0 21.333 -5.66699 37.333 -17 48s-31 16 -59 16h-58v59h58c25.333 0 43 5 53 15
s15 25.667 15 47v13c0 16.667 -4.66699 28.667 -14 36s-24.666 11 -45.999 11z" />
    <glyph glyph-name="questiondown" unicode="&#xbf;" horiz-adv-x="395" 
d="M244.009 -128.962c19.333 0 40.833 2 64.498 6c23.665 3.99902 44.1641 7.99902 61.4971 11.999v-69.9961c-21.999 -4.66602 -44.998 -8.49902 -68.9971 -11.499s-44.6641 -4.5 -61.9961 -4.5c-66.6631 0 -113.993 12.166 -141.991 36.498
c-27.999 24.332 -41.998 58.1631 -41.998 101.494v24.998c0 29.998 6.66602 58.4961 19.999 85.4951c13.333 26.998 35.665 56.8291 66.9961 89.4941l32.998 35.998c5.33301 5.33301 9.66602 10.499 12.999 15.498c3.33301 5 5.99902 10.166 7.99805 15.499
c2 5.33301 3.5 11.666 4.5 18.999s1.5 15.999 1.5 25.998v44.9971h80.9951v-31.998c0 -15.999 -0.5 -29.498 -1.5 -40.4971s-2.83301 -20.832 -5.5 -29.498c-2.66602 -8.66602 -6.66602 -16.999 -11.999 -24.999c-5.33301 -7.99902 -12.332 -16.998 -20.998 -26.9971
l-57.9971 -67.9961c-9.33301 -10.666 -16.832 -20.499 -22.498 -29.498c-5.66699 -8.99902 -10.167 -17.665 -13.5 -25.998s-5.66602 -16.999 -6.99902 -25.999c-1.33301 -8.99902 -2 -19.165 -2 -30.498v-21.998c0 -23.999 7.16602 -41.8311 21.499 -53.4971
c14.332 -11.666 41.8301 -17.499 82.4941 -17.499zM185.014 465.002c0 29.998 18.666 44.9971 55.9971 44.9971c36.6641 0 54.9961 -14.999 54.9961 -44.9971v-28.998c0 -30.665 -18.332 -45.9971 -54.9961 -45.9971c-37.3311 0 -55.9971 15.332 -55.9971 45.9971v28.998z
" />
    <glyph glyph-name="Agrave" unicode="&#xc0;" horiz-adv-x="536" 
d="M386 152h-241l-43 -152h-87l200 655h105l201 -655h-92zM166 228h198l-98 349zM166 829h89l66 -119h-70z" />
    <glyph glyph-name="Aacute" unicode="&#xc1;" horiz-adv-x="536" 
d="M386 152h-241l-43 -152h-87l200 655h105l201 -655h-92zM166 228h198l-98 349zM275 710h-70l66 119h89z" />
    <glyph glyph-name="Acircumflex" unicode="&#xc2;" horiz-adv-x="536" 
d="M386 152h-241l-43 -152h-87l200 655h105l201 -655h-92zM166 228h198l-98 349zM130 711v68l140 61l140 -61v-68l-140 49z" />
    <glyph glyph-name="Atilde" unicode="&#xc3;" horiz-adv-x="536" 
d="M386 152h-241l-43 -152h-87l200 655h105l201 -655h-92zM166 228h198l-98 349zM410 740c-7.33301 -6 -14.999 -10.9971 -22.999 -14.9971c-7.33301 -4 -15.833 -7.5 -25.5 -10.5s-20.167 -4.5 -31.5 -4.5s-22 1.33301 -32 4s-20 5.5 -30 8.5s-20 5.83301 -30 8.5
s-20 4 -30 4c-8.66699 0 -17.5 -1.33301 -26.5 -4s-17.167 -5.66699 -24.5 -9c-8.66699 -3.33301 -17.667 -7.33301 -27 -12v70c7.33301 5.33301 15 10.333 23 15c7.33301 3.33301 15.833 6.66602 25.5 9.99902s20.167 5 31.5 5c13.333 0 25.5 -1.33301 36.5 -4
s21.167 -5.5 30.5 -8.5l27.5 -8.5c9 -2.66699 18.167 -4 27.5 -4c8 0 16.667 1.16699 26 3.5s17.666 5.16602 24.999 8.49902c8.66699 3.33301 17.667 7.66602 27 12.999v-70z" />
    <glyph glyph-name="Adieresis" unicode="&#xc4;" horiz-adv-x="536" 
d="M386 152h-241l-43 -152h-87l200 655h105l201 -655h-92zM166 228h198l-98 349zM235 754c0 -29.333 -18.333 -43.999 -55 -43.999c-17.333 0 -30.666 3.83301 -39.999 11.5s-14 18.5 -14 32.5v29c0 15.333 4.66699 26.666 14 33.999s22.666 11 39.999 11
c36.667 0 55 -15 55 -45v-29zM407 754.001c0 -29.333 -18.333 -44 -55 -44c-36 0 -54 14.667 -54 44v29c0 30 18 45 54 45c36.667 0 55 -15 55 -45v-29z" />
    <glyph glyph-name="Aring" unicode="&#xc5;" horiz-adv-x="536" 
d="M383 700c0 -22 -4.5 -40.333 -13.5 -55s-21.167 -25.667 -36.5 -33l188 -612h-92l-43 152h-241l-43 -152h-87l187 613c-15.333 7.33301 -27.333 18.333 -36 33s-13 32.667 -13 54c0 34 10.333 59.167 31 75.5s48.667 24.5 84 24.5c34.667 0 62.5 -8.16699 83.5 -24.5
s31.5 -41.5 31.5 -75.5zM166 228h198l-98 349zM318 700c0 13.333 -3.66699 24.166 -11 32.499s-20.333 12.5 -39 12.5s-31.667 -4.16699 -39 -12.5s-11 -19.166 -11 -32.499s3.66699 -24.166 11 -32.499s20.333 -12.5 39 -12.5s31.667 4.16699 39 12.5s11 19.166 11 32.499z
" />
    <glyph glyph-name="AE" unicode="&#xc6;" horiz-adv-x="774" 
d="M364 0v152h-194l-66 -152h-89l293 655h401v-77h-260v-207h240v-76h-240v-218h260v-77h-345zM364 228v369l-161 -369h161z" />
    <glyph glyph-name="Ccedilla" unicode="&#xc7;" horiz-adv-x="476" 
d="M349 -120c0 -51.333 -31.6689 -76.999 -95.002 -76.999c-8 0 -15.833 0.5 -23.5 1.5l-25.5 3.5v53c7.33301 -1.33301 13.833 -2.33301 19.5 -3s11.167 -1 16.5 -1c14.667 0 25.167 2.16699 31.5 6.5s9.5 10.166 9.5 17.499v13c-0.666992 10 -3.66699 16.833 -9 20.5
s-13.666 5.5 -24.999 5.5h-30v21l15 50c-60 6.66699 -102.167 26.667 -126.5 60s-36.5 79.666 -36.5 138.999v275c0 68 16 118.667 48 152s87 50 165 50c22.667 0 45.834 -1.83301 69.501 -5.5l68.5 -10.5l-2 -75c-16.667 3.33301 -37.334 6.83301 -62.001 10.5
s-49.334 5.5 -74.001 5.5c-46 0 -78.833 -9.16699 -98.5 -27.5s-29.5 -49.5 -29.5 -93.5v-286c0 -43.333 9.83301 -74.166 29.5 -92.499s52.5 -27.5 98.5 -27.5c24.667 0 49.334 1.83301 74.001 5.5s45.334 7.16699 62.001 10.5l2 -77c-20 -3.33301 -40.667 -6.5 -62 -9.5
s-42.333 -5.16699 -63 -6.5l-9 -29h10c14 0 26.167 -5.83301 36.5 -17.5s15.5 -27.167 15.5 -46.5v-15z" />
    <glyph glyph-name="Egrave" unicode="&#xc8;" horiz-adv-x="485" 
d="M75 0v655h345v-77h-260v-207h240v-76h-240v-218h260v-77h-345zM160 829h89l66 -119h-70z" />
    <glyph glyph-name="Eacute" unicode="&#xc9;" horiz-adv-x="485" 
d="M75 0v655h345v-77h-260v-207h240v-76h-240v-218h260v-77h-345zM265 710h-70l66 119h89z" />
    <glyph glyph-name="Ecircumflex" unicode="&#xca;" horiz-adv-x="485" 
d="M75 0v655h345v-77h-260v-207h240v-76h-240v-218h260v-77h-345zM124 711v68l140 61l140 -61v-68l-140 49z" />
    <glyph glyph-name="Edieresis" unicode="&#xcb;" horiz-adv-x="485" 
d="M75 0v655h345v-77h-260v-207h240v-76h-240v-218h260v-77h-345zM212 754c0 -29.333 -18.333 -43.999 -55 -43.999c-17.333 0 -30.666 3.83301 -39.999 11.5s-14 18.5 -14 32.5v29c0 15.333 4.66699 26.666 14 33.999s22.666 11 39.999 11c36.667 0 55 -15 55 -45v-29z
M384 754.001c0 -29.333 -18.333 -44 -55 -44c-36 0 -54 14.667 -54 44v29c0 30 18 45 54 45c36.667 0 55 -15 55 -45v-29z" />
    <glyph glyph-name="Igrave" unicode="&#xcc;" horiz-adv-x="235" 
d="M75 0v655h85v-655h-85zM18 829h89l66 -119h-70z" />
    <glyph glyph-name="Iacute" unicode="&#xcd;" horiz-adv-x="235" 
d="M75 0v655h85v-655h-85zM126 710h-70l66 119h89z" />
    <glyph glyph-name="Icircumflex" unicode="&#xce;" horiz-adv-x="235" 
d="M75 0v655h85v-655h-85zM-23 711v68l140 61l140 -61v-68l-140 49z" />
    <glyph glyph-name="Idieresis" unicode="&#xcf;" horiz-adv-x="235" 
d="M75 0v655h85v-655h-85zM84 754c0 -29.333 -18.333 -43.999 -55 -43.999c-17.333 0 -30.666 3.83301 -39.999 11.5s-14 18.5 -14 32.5v29c0 15.333 4.66699 26.666 14 33.999s22.666 11 39.999 11c36.667 0 55 -15 55 -45v-29zM256 754.001c0 -29.333 -18.333 -44 -55 -44
c-36 0 -54 14.667 -54 44v29c0 30 18 45 54 45c36.667 0 55 -15 55 -45v-29z" />
    <glyph glyph-name="Eth" unicode="&#xd0;" horiz-adv-x="571" 
d="M75 303h-70v70h70v290c22.667 1.33301 49.167 2.33301 79.5 3s64.833 1 103.5 1c79.333 0 140.5 -22.333 183.5 -67s64.5 -109.667 64.5 -195v-164c0 -81.333 -21.167 -143.833 -63.5 -187.5s-105.5 -65.5 -189.5 -65.5c-34 0 -64.333 0.5 -91 1.5s-55.667 2.5 -87 4.5
v309zM160 373h134.999v-70h-135v-236c38.667 -4 69.667 -6 93 -6c50 0 90.5 14.5 121.5 43.5s46.5 72.167 46.5 129.5v177c0 62 -15 108.167 -45 138.5s-71 45.5 -123 45.5c-16 0 -31.667 -0.166992 -47 -0.5s-30.666 -0.833008 -45.999 -1.5v-220z" />
    <glyph glyph-name="Ntilde" unicode="&#xd1;" horiz-adv-x="582" 
d="M375 0l-216 553v-553h-84v655h136l212 -553v553h84v-655h-132zM454 740c-7.33301 -6 -14.999 -10.9971 -22.999 -14.9971c-7.33301 -4 -15.833 -7.5 -25.5 -10.5s-20.167 -4.5 -31.5 -4.5s-22 1.33301 -32 4s-20 5.5 -30 8.5s-20 5.83301 -30 8.5s-20 4 -30 4
c-8.66699 0 -17.5 -1.33301 -26.5 -4s-17.167 -5.66699 -24.5 -9c-8.66699 -3.33301 -17.667 -7.33301 -27 -12v70c7.33301 5.33301 15 10.333 23 15c7.33301 3.33301 15.833 6.66602 25.5 9.99902s20.167 5 31.5 5c13.333 0 25.5 -1.33301 36.5 -4s21.167 -5.5 30.5 -8.5
l27.5 -8.5c9 -2.66699 18.167 -4 27.5 -4c8 0 16.667 1.16699 26 3.5s17.666 5.16602 24.999 8.49902c8.66699 3.33301 17.667 7.66602 27 12.999v-70z" />
    <glyph glyph-name="Ograve" unicode="&#xd2;" horiz-adv-x="576" 
d="M155 194c0 -42.667 11.167 -75.167 33.5 -97.5s55.5 -33.5 99.5 -33.5s77.167 11.167 99.5 33.5s33.5 54.833 33.5 97.5v267c0 42 -11 74.333 -33 97s-55.333 34 -100 34s-78 -11.167 -100 -33.5s-33 -54.5 -33 -96.5v-268zM70 452c0 32.667 4.16699 62.334 12.5 89.001
s21.166 49.334 38.499 68.001s39.833 33 67.5 43s60.834 15 99.501 15s71.834 -5 99.501 -15s50.167 -24.333 67.5 -43s30.166 -41.334 38.499 -68.001s12.5 -56.334 12.5 -89.001v-249c0 -33.333 -4.16699 -63.166 -12.5 -89.499s-21.166 -48.833 -38.499 -67.5
s-39.833 -33 -67.5 -43s-60.834 -15 -99.501 -15s-71.834 5 -99.501 15s-50.167 24.333 -67.5 43s-30.166 41.167 -38.499 67.5s-12.5 56.166 -12.5 89.499v249zM186 829h89l66 -119h-70z" />
    <glyph glyph-name="Oacute" unicode="&#xd3;" horiz-adv-x="576" 
d="M155 194c0 -42.667 11.167 -75.167 33.5 -97.5s55.5 -33.5 99.5 -33.5s77.167 11.167 99.5 33.5s33.5 54.833 33.5 97.5v267c0 42 -11 74.333 -33 97s-55.333 34 -100 34s-78 -11.167 -100 -33.5s-33 -54.5 -33 -96.5v-268zM70 452c0 32.667 4.16699 62.334 12.5 89.001
s21.166 49.334 38.499 68.001s39.833 33 67.5 43s60.834 15 99.501 15s71.834 -5 99.501 -15s50.167 -24.333 67.5 -43s30.166 -41.334 38.499 -68.001s12.5 -56.334 12.5 -89.001v-249c0 -33.333 -4.16699 -63.166 -12.5 -89.499s-21.166 -48.833 -38.499 -67.5
s-39.833 -33 -67.5 -43s-60.834 -15 -99.501 -15s-71.834 5 -99.501 15s-50.167 24.333 -67.5 43s-30.166 41.167 -38.499 67.5s-12.5 56.166 -12.5 89.499v249zM295 710h-70l66 119h89z" />
    <glyph glyph-name="Ocircumflex" unicode="&#xd4;" horiz-adv-x="576" 
d="M155 194c0 -42.667 11.167 -75.167 33.5 -97.5s55.5 -33.5 99.5 -33.5s77.167 11.167 99.5 33.5s33.5 54.833 33.5 97.5v267c0 42 -11 74.333 -33 97s-55.333 34 -100 34s-78 -11.167 -100 -33.5s-33 -54.5 -33 -96.5v-268zM70 452c0 32.667 4.16699 62.334 12.5 89.001
s21.166 49.334 38.499 68.001s39.833 33 67.5 43s60.834 15 99.501 15s71.834 -5 99.501 -15s50.167 -24.333 67.5 -43s30.166 -41.334 38.499 -68.001s12.5 -56.334 12.5 -89.001v-249c0 -33.333 -4.16699 -63.166 -12.5 -89.499s-21.166 -48.833 -38.499 -67.5
s-39.833 -33 -67.5 -43s-60.834 -15 -99.501 -15s-71.834 5 -99.501 15s-50.167 24.333 -67.5 43s-30.166 41.167 -38.499 67.5s-12.5 56.166 -12.5 89.499v249zM148 711v68l140 61l140 -61v-68l-140 49z" />
    <glyph glyph-name="Otilde" unicode="&#xd5;" horiz-adv-x="576" 
d="M155 194c0 -42.667 11.167 -75.167 33.5 -97.5s55.5 -33.5 99.5 -33.5s77.167 11.167 99.5 33.5s33.5 54.833 33.5 97.5v267c0 42 -11 74.333 -33 97s-55.333 34 -100 34s-78 -11.167 -100 -33.5s-33 -54.5 -33 -96.5v-268zM70 452c0 32.667 4.16699 62.334 12.5 89.001
s21.166 49.334 38.499 68.001s39.833 33 67.5 43s60.834 15 99.501 15s71.834 -5 99.501 -15s50.167 -24.333 67.5 -43s30.166 -41.334 38.499 -68.001s12.5 -56.334 12.5 -89.001v-249c0 -33.333 -4.16699 -63.166 -12.5 -89.499s-21.166 -48.833 -38.499 -67.5
s-39.833 -33 -67.5 -43s-60.834 -15 -99.501 -15s-71.834 5 -99.501 15s-50.167 24.333 -67.5 43s-30.166 41.167 -38.499 67.5s-12.5 56.166 -12.5 89.499v249zM428 740c-7.33301 -6 -14.999 -10.9971 -22.999 -14.9971c-7.33301 -4 -15.833 -7.5 -25.5 -10.5
s-20.167 -4.5 -31.5 -4.5s-22 1.33301 -32 4s-20 5.5 -30 8.5s-20 5.83301 -30 8.5s-20 4 -30 4c-8.66699 0 -17.5 -1.33301 -26.5 -4s-17.167 -5.66699 -24.5 -9c-8.66699 -3.33301 -17.667 -7.33301 -27 -12v70c7.33301 5.33301 15 10.333 23 15
c7.33301 3.33301 15.833 6.66602 25.5 9.99902s20.167 5 31.5 5c13.333 0 25.5 -1.33301 36.5 -4s21.167 -5.5 30.5 -8.5l27.5 -8.5c9 -2.66699 18.167 -4 27.5 -4c8 0 16.667 1.16699 26 3.5s17.666 5.16602 24.999 8.49902c8.66699 3.33301 17.667 7.66602 27 12.999v-70z
" />
    <glyph glyph-name="Odieresis" unicode="&#xd6;" horiz-adv-x="576" 
d="M155 194c0 -42.667 11.167 -75.167 33.5 -97.5s55.5 -33.5 99.5 -33.5s77.167 11.167 99.5 33.5s33.5 54.833 33.5 97.5v267c0 42 -11 74.333 -33 97s-55.333 34 -100 34s-78 -11.167 -100 -33.5s-33 -54.5 -33 -96.5v-268zM70 452c0 32.667 4.16699 62.334 12.5 89.001
s21.166 49.334 38.499 68.001s39.833 33 67.5 43s60.834 15 99.501 15s71.834 -5 99.501 -15s50.167 -24.333 67.5 -43s30.166 -41.334 38.499 -68.001s12.5 -56.334 12.5 -89.001v-249c0 -33.333 -4.16699 -63.166 -12.5 -89.499s-21.166 -48.833 -38.499 -67.5
s-39.833 -33 -67.5 -43s-60.834 -15 -99.501 -15s-71.834 5 -99.501 15s-50.167 24.333 -67.5 43s-30.166 41.167 -38.499 67.5s-12.5 56.166 -12.5 89.499v249zM257 754c0 -29.333 -18.333 -43.999 -55 -43.999c-17.333 0 -30.666 3.83301 -39.999 11.5s-14 18.5 -14 32.5
v29c0 15.333 4.66699 26.666 14 33.999s22.666 11 39.999 11c36.667 0 55 -15 55 -45v-29zM429 754.001c0 -29.333 -18.333 -44 -55 -44c-36 0 -54 14.667 -54 44v29c0 30 18 45 54 45c36.667 0 55 -15 55 -45v-29z" />
    <glyph glyph-name="multiply" unicode="&#xd7;" 
d="M311 302l108 -108l-54 -53l-108 107l-105 -105l-50 50l105 105l-107 108l53 54l108 -108l106 106l50 -50z" />
    <glyph glyph-name="Oslash" unicode="&#xd8;" horiz-adv-x="576" 
d="M35 -50l68 117.997c-11.333 17.333 -19.666 37.333 -24.999 60s-8 47.667 -8 75v249c0 32.667 4.16699 62.334 12.5 89.001s21.166 49.334 38.499 68.001s39.833 33 67.5 43s60.834 15 99.501 15c53.333 0 96.666 -9.66699 129.999 -29l38 67h85l-67 -120
c21.333 -34 32 -78.333 32 -133v-249c0 -33.333 -4.16699 -63.166 -12.5 -89.499s-21.166 -48.833 -38.499 -67.5s-39.833 -33 -67.5 -43s-60.834 -15 -99.501 -15c-27.333 0 -51.5 2.33301 -72.5 7s-39.833 11.667 -56.5 21l-39 -66h-85zM155 193.997c0 -14 1 -27 3 -39
l225 407c-22 20 -53.667 30 -95 30c-44.667 0 -78 -11.167 -100 -33.5s-33 -54.5 -33 -96.5v-268zM421 460.997c0 12.667 -0.999023 24.667 -2.99902 36l-224 -406c21.333 -18.667 52.666 -28 93.999 -28c44 0 77.167 11.167 99.5 33.5s33.5 54.833 33.5 97.5v267z" />
    <glyph glyph-name="Ugrave" unicode="&#xd9;" horiz-adv-x="576" 
d="M501 655l-0.00195312 -447.999c0 -70.667 -17.667 -124.834 -53 -162.501s-88.666 -56.5 -159.999 -56.5c-69.333 0 -122.166 18 -158.499 54s-54.5 90.333 -54.5 163v450h85v-461c0 -44 11.167 -76.833 33.5 -98.5s53.833 -32.5 94.5 -32.5s72.167 10.833 94.5 32.5
s33.5 54.5 33.5 98.5v461h85zM197.998 829.001h89l66 -119h-70z" />
    <glyph glyph-name="Uacute" unicode="&#xda;" horiz-adv-x="576" 
d="M501 655l-0.00195312 -447.999c0 -70.667 -17.667 -124.834 -53 -162.501s-88.666 -56.5 -159.999 -56.5c-69.333 0 -122.166 18 -158.499 54s-54.5 90.333 -54.5 163v450h85v-461c0 -44 11.167 -76.833 33.5 -98.5s53.833 -32.5 94.5 -32.5s72.167 10.833 94.5 32.5
s33.5 54.5 33.5 98.5v461h85zM309.998 710.001h-70l66 119h89z" />
    <glyph glyph-name="Ucircumflex" unicode="&#xdb;" horiz-adv-x="576" 
d="M501 655l-0.00195312 -447.999c0 -70.667 -17.667 -124.834 -53 -162.501s-88.666 -56.5 -159.999 -56.5c-69.333 0 -122.166 18 -158.499 54s-54.5 90.333 -54.5 163v450h85v-461c0 -44 11.167 -76.833 33.5 -98.5s53.833 -32.5 94.5 -32.5s72.167 10.833 94.5 32.5
s33.5 54.5 33.5 98.5v461h85zM157.998 711.001v68l140 61l140 -61v-68l-140 49z" />
    <glyph glyph-name="Udieresis" unicode="&#xdc;" horiz-adv-x="576" 
d="M501 655l-0.00195312 -447.999c0 -70.667 -17.667 -124.834 -53 -162.501s-88.666 -56.5 -159.999 -56.5c-69.333 0 -122.166 18 -158.499 54s-54.5 90.333 -54.5 163v450h85v-461c0 -44 11.167 -76.833 33.5 -98.5s53.833 -32.5 94.5 -32.5s72.167 10.833 94.5 32.5
s33.5 54.5 33.5 98.5v461h85zM264.998 754.001c0 -29.333 -18.333 -43.999 -55 -43.999c-17.333 0 -30.666 3.83301 -39.999 11.5s-14 18.5 -14 32.5v29c0 15.333 4.66699 26.666 14 33.999s22.666 11 39.999 11c36.667 0 55 -15 55 -45v-29zM436.998 754.002
c0 -29.333 -18.333 -44 -55 -44c-36 0 -54 14.667 -54 44v29c0 30 18 45 54 45c36.667 0 55 -15 55 -45v-29z" />
    <glyph glyph-name="Yacute" unicode="&#xdd;" horiz-adv-x="495" 
d="M290 225v-225h-85v225l-190 430h97l136 -340l137 340h95zM262 710h-70l66 119h89z" />
    <glyph glyph-name="Thorn" unicode="&#xde;" horiz-adv-x="560" 
d="M75 0v655.001h85v-122c16 2 31.667 3.5 47 4.5s29 1.5 41 1.5c80 0 138.5 -16 175.5 -48s55.5 -76.667 55.5 -134v-24c0 -60.667 -18 -108.334 -54 -143.001s-92.333 -52 -169 -52c-14.667 0 -29.5 0.5 -44.5 1.5s-32.167 3.16699 -51.5 6.5v-146h-85zM160 219.001
c22.667 -3.33301 40.667 -5.49902 54 -6.49902s26 -1.5 38 -1.5c94.667 0 142 42 142 126v17c0 37.333 -11.667 65.666 -35 84.999s-61 29 -113 29c-22 0 -39.167 -0.5 -51.5 -1.5s-23.833 -2.16699 -34.5 -3.5v-244z" />
    <glyph glyph-name="germandbls" unicode="&#xdf;" horiz-adv-x="486" 
d="M75 0l-0.000976562 534.001c0 56 12.333 96.833 37 122.5s66.334 38.5 125.001 38.5c48 0 85.667 -12 113 -36s41 -55 41 -93v-27c0 -21.333 -4.5 -39.166 -13.5 -53.499s-18.833 -27.333 -29.5 -39l-29.5 -33c-9 -10.333 -13.5 -21.833 -13.5 -34.5v-15
c0 -10 1.5 -18 4.5 -24s8.83301 -11.667 17.5 -17l47 -28c31.333 -15.333 53.666 -33 66.999 -53s20 -44 20 -72v-33c0 -54 -10.333 -92.333 -31 -115s-57 -34 -109 -34c-10.667 0 -24.167 1.33301 -40.5 4s-35.5 6.33398 -57.5 11.001l2 75c17.333 -4 34.5 -7.5 51.5 -10.5
s31.833 -4.5 44.5 -4.5c17.333 0 30.5 5.16699 39.5 15.5s13.5 27.166 13.5 50.499v31c0 15.333 -2.83301 27.5 -8.5 36.5s-15.5 17.5 -29.5 25.5l-48 27c-25.333 14 -42.5 28.833 -51.5 44.5s-13.5 36.834 -13.5 63.501v19c0 21.333 4.33301 38.5 13 51.5
s18.167 24.667 28.5 35s19.833 21.166 28.5 32.499s13 25.666 13 42.999v28c0 17.333 -6.16699 31.166 -18.5 41.499s-31.166 15.5 -56.499 15.5s-43.5 -5.83301 -54.5 -17.5s-16.5 -32.167 -16.5 -61.5v-544h-85z" />
    <glyph glyph-name="agrave" unicode="&#xe0;" horiz-adv-x="469" 
d="M394 0l-80.9971 0.00292969v78c-39.333 -60 -83 -90 -131 -90c-38 0 -68.667 13.167 -92 39.5s-35 62.833 -35 109.5v28c0 20 3.5 38.667 10.5 56s17 32.166 30 44.499s28.833 22.166 47.5 29.499s39.667 11 63 11c14.667 0 31.667 -1.33301 51 -4
s36.666 -5.66699 51.999 -9v53c0 30 -6.5 51 -19.5 63s-33.167 18 -60.5 18c-10 0 -21 -0.5 -33 -1.5s-24 -2.33301 -36 -4l-35.5 -5l-30.5 -4.5v73c22 3.33301 45.667 6.66602 71 9.99902s46.666 5 63.999 5c57.333 0 99.166 -12.667 125.499 -38s39.5 -66.333 39.5 -123
v-339zM201.003 64.0029c17.333 0 35.667 7.66797 55 23.001s37 37.666 53 66.999v77c-13.333 2.66699 -27.666 4.5 -42.999 5.5s-28.333 1.5 -39 1.5c-28 0 -49.333 -7.5 -64 -22.5s-22 -35.5 -22 -61.5v-11c0 -25.333 5.66699 -44.833 17 -58.5s25.666 -20.5 42.999 -20.5z
M154.004 685.004h85l76 -139h-66z" />
    <glyph glyph-name="aacute" unicode="&#xe1;" horiz-adv-x="469" 
d="M394 0l-80.9971 0.00292969v78c-39.333 -60 -83 -90 -131 -90c-38 0 -68.667 13.167 -92 39.5s-35 62.833 -35 109.5v28c0 20 3.5 38.667 10.5 56s17 32.166 30 44.499s28.833 22.166 47.5 29.499s39.667 11 63 11c14.667 0 31.667 -1.33301 51 -4
s36.666 -5.66699 51.999 -9v53c0 30 -6.5 51 -19.5 63s-33.167 18 -60.5 18c-10 0 -21 -0.5 -33 -1.5s-24 -2.33301 -36 -4l-35.5 -5l-30.5 -4.5v73c22 3.33301 45.667 6.66602 71 9.99902s46.666 5 63.999 5c57.333 0 99.166 -12.667 125.499 -38s39.5 -66.333 39.5 -123
v-339zM201.003 64.0029c17.333 0 35.667 7.66797 55 23.001s37 37.666 53 66.999v77c-13.333 2.66699 -27.666 4.5 -42.999 5.5s-28.333 1.5 -39 1.5c-28 0 -49.333 -7.5 -64 -22.5s-22 -35.5 -22 -61.5v-11c0 -25.333 5.66699 -44.833 17 -58.5s25.666 -20.5 42.999 -20.5z
M250.004 546.004h-66l76 139h85z" />
    <glyph glyph-name="acircumflex" unicode="&#xe2;" horiz-adv-x="469" 
d="M394 0l-80.9971 0.00292969v78c-39.333 -60 -83 -90 -131 -90c-38 0 -68.667 13.167 -92 39.5s-35 62.833 -35 109.5v28c0 20 3.5 38.667 10.5 56s17 32.166 30 44.499s28.833 22.166 47.5 29.499s39.667 11 63 11c14.667 0 31.667 -1.33301 51 -4
s36.666 -5.66699 51.999 -9v53c0 30 -6.5 51 -19.5 63s-33.167 18 -60.5 18c-10 0 -21 -0.5 -33 -1.5s-24 -2.33301 -36 -4l-35.5 -5l-30.5 -4.5v73c22 3.33301 45.667 6.66602 71 9.99902s46.666 5 63.999 5c57.333 0 99.166 -12.667 125.499 -38s39.5 -66.333 39.5 -123
v-339zM201.003 64.0029c17.333 0 35.667 7.66797 55 23.001s37 37.666 53 66.999v77c-13.333 2.66699 -27.666 4.5 -42.999 5.5s-28.333 1.5 -39 1.5c-28 0 -49.333 -7.5 -64 -22.5s-22 -35.5 -22 -61.5v-11c0 -25.333 5.66699 -44.833 17 -58.5s25.666 -20.5 42.999 -20.5z
M108.004 546.004v70l130 74l130 -74v-70l-130 65z" />
    <glyph glyph-name="atilde" unicode="&#xe3;" horiz-adv-x="469" 
d="M394 0l-80.9971 0.00292969v78c-39.333 -60 -83 -90 -131 -90c-38 0 -68.667 13.167 -92 39.5s-35 62.833 -35 109.5v28c0 20 3.5 38.667 10.5 56s17 32.166 30 44.499s28.833 22.166 47.5 29.499s39.667 11 63 11c14.667 0 31.667 -1.33301 51 -4
s36.666 -5.66699 51.999 -9v53c0 30 -6.5 51 -19.5 63s-33.167 18 -60.5 18c-10 0 -21 -0.5 -33 -1.5s-24 -2.33301 -36 -4l-35.5 -5l-30.5 -4.5v73c22 3.33301 45.667 6.66602 71 9.99902s46.666 5 63.999 5c57.333 0 99.166 -12.667 125.499 -38s39.5 -66.333 39.5 -123
v-339zM201.003 64.0029c17.333 0 35.667 7.66797 55 23.001s37 37.666 53 66.999v77c-13.333 2.66699 -27.666 4.5 -42.999 5.5s-28.333 1.5 -39 1.5c-28 0 -49.333 -7.5 -64 -22.5s-22 -35.5 -22 -61.5v-11c0 -25.333 5.66699 -44.833 17 -58.5s25.666 -20.5 42.999 -20.5z
M371.004 615.004c-5.33301 -4.66699 -15.001 -10.833 -29.001 -18.5s-31 -11.5 -51 -11.5c-10 0 -19.167 1.33301 -27.5 4s-16.5 5.5 -24.5 8.5s-16 5.83301 -24 8.5s-16.667 4 -26 4c-6 0 -12.667 -0.833008 -20 -2.5s-14.833 -3.83398 -22.5 -6.50098
s-14.667 -5.5 -21 -8.5s-11.166 -5.5 -14.499 -7.5v70c4 4 13.5 10 28.5 18s32.167 12 51.5 12c12.667 0 23.5 -1.33301 32.5 -4s17.167 -5.5 24.5 -8.5l21.5 -8.5c7 -2.66699 14.833 -4 23.5 -4c6 0 13 1 21 3s15.833 4.33301 23.5 7s14.5 5.33398 20.5 8.00098
s10.333 5 13 7v-70z" />
    <glyph glyph-name="adieresis" unicode="&#xe4;" horiz-adv-x="469" 
d="M394 0l-80.9971 0.00292969v78c-39.333 -60 -83 -90 -131 -90c-38 0 -68.667 13.167 -92 39.5s-35 62.833 -35 109.5v28c0 20 3.5 38.667 10.5 56s17 32.166 30 44.499s28.833 22.166 47.5 29.499s39.667 11 63 11c14.667 0 31.667 -1.33301 51 -4
s36.666 -5.66699 51.999 -9v53c0 30 -6.5 51 -19.5 63s-33.167 18 -60.5 18c-10 0 -21 -0.5 -33 -1.5s-24 -2.33301 -36 -4l-35.5 -5l-30.5 -4.5v73c22 3.33301 45.667 6.66602 71 9.99902s46.666 5 63.999 5c57.333 0 99.166 -12.667 125.499 -38s39.5 -66.333 39.5 -123
v-339zM201.003 64.0029c17.333 0 35.667 7.66797 55 23.001s37 37.666 53 66.999v77c-13.333 2.66699 -27.666 4.5 -42.999 5.5s-28.333 1.5 -39 1.5c-28 0 -49.333 -7.5 -64 -22.5s-22 -35.5 -22 -61.5v-11c0 -25.333 5.66699 -44.833 17 -58.5s25.666 -20.5 42.999 -20.5z
M201.004 621.004c0 -29.333 -18.333 -43.999 -55 -43.999c-17.333 0 -30.666 3.83301 -39.999 11.5s-14 18.5 -14 32.5v29c0 15.333 4.66699 26.666 14 33.999s22.666 11 39.999 11c36.667 0 55 -15 55 -45v-29zM373.004 621.005c0 -29.333 -18.333 -44 -55 -44
c-36 0 -54 14.667 -54 44v29c0 30 18 45 54 45c36.667 0 55 -15 55 -45v-29z" />
    <glyph glyph-name="aring" unicode="&#xe5;" horiz-adv-x="469" 
d="M394 0l-80.9971 0.00292969v78c-39.333 -60 -83 -90 -131 -90c-38 0 -68.667 13.167 -92 39.5s-35 62.833 -35 109.5v28c0 20 3.5 38.667 10.5 56s17 32.166 30 44.499s28.833 22.166 47.5 29.499s39.667 11 63 11c14.667 0 31.667 -1.33301 51 -4
s36.666 -5.66699 51.999 -9v53c0 30 -6.5 51 -19.5 63s-33.167 18 -60.5 18c-10 0 -21 -0.5 -33 -1.5s-24 -2.33301 -36 -4l-35.5 -5l-30.5 -4.5v73c22 3.33301 45.667 6.66602 71 9.99902s46.666 5 63.999 5c57.333 0 99.166 -12.667 125.499 -38s39.5 -66.333 39.5 -123
v-339zM201.003 64.0029c17.333 0 35.667 7.66797 55 23.001s37 37.666 53 66.999v77c-13.333 2.66699 -27.666 4.5 -42.999 5.5s-28.333 1.5 -39 1.5c-28 0 -49.333 -7.5 -64 -22.5s-22 -35.5 -22 -61.5v-11c0 -25.333 5.66699 -44.833 17 -58.5s25.666 -20.5 42.999 -20.5z
M356.004 625.004c0 -34 -10.333 -59.167 -31 -75.5s-48.667 -24.5 -84 -24.5c-34.667 0 -62.5 8.16699 -83.5 24.5s-31.5 41.5 -31.5 75.5s10.333 59.167 31 75.5s48.667 24.5 84 24.5c34.667 0 62.5 -8.16699 83.5 -24.5s31.5 -41.5 31.5 -75.5zM291.004 625.004
c0 13.333 -3.66699 24.166 -11 32.499s-20.333 12.5 -39 12.5s-31.667 -4.16699 -39 -12.5s-11 -19.166 -11 -32.499s3.66699 -24.166 11 -32.499s20.333 -12.5 39 -12.5s31.667 4.16699 39 12.5s11 19.166 11 32.499z" />
    <glyph glyph-name="ae" unicode="&#xe6;" horiz-adv-x="725" 
d="M394 218v-58.9971c0 -34 8.5 -58.5 25.5 -73.5s43.167 -22.5 78.5 -22.5c10.667 0 22.5 0.666992 35.5 2s25.833 2.83301 38.5 4.5s25 3.5 37 5.5s22.333 4 31 6l-4 -75c-22 -4 -45.667 -8 -71 -12s-47.666 -6 -66.999 -6c-50.667 0 -89 8.66699 -115 26
s-43.667 42.666 -53 75.999c-20.667 -32.667 -43 -57.834 -67 -75.501s-51 -26.5 -81 -26.5c-38.667 0 -69.5 13.333 -92.5 40s-34.5 63 -34.5 109v28c0 20 3.33301 38.5 10 55.5s16.5 31.833 29.5 44.5s28.833 22.667 47.5 30s40 11 64 11c14.667 0 31.667 -1.33301 51 -4
s36.666 -5.66699 51.999 -9v58c0 28 -6.33301 48.167 -19 60.5s-33 18.5 -61 18.5c-10 0 -21 -0.5 -33 -1.5s-24 -2.33301 -36 -4l-35.5 -5l-30.5 -4.5v70c22 3.33301 45.667 6.66602 71 9.99902s46.666 5 63.999 5c63.333 0 107 -19 131 -57
c24.667 38 65.334 57 122.001 57c56 0 98.833 -15.167 128.5 -45.5s44.5 -74.833 44.5 -133.5v-103h-261zM309 231.003c-13.333 2.66699 -27.665 4.50098 -42.998 5.50098s-28.333 1.5 -39 1.5c-28 0 -49.333 -7.5 -64 -22.5s-22 -35.5 -22 -61.5v-11
c0 -25.333 5.66699 -44.833 17 -58.5s25.666 -20.5 42.999 -20.5s35.666 7.66699 54.999 23s37 37.666 53 66.999v77zM394.001 288.004h176v43c0 32 -7.83301 56.333 -23.5 73s-37.167 25 -64.5 25c-26 0 -46.833 -7.5 -62.5 -22.5s-24.167 -37.5 -25.5 -67.5v-51z" />
    <glyph glyph-name="ccedilla" unicode="&#xe7;" horiz-adv-x="401" 
d="M304 -120c0 -51.333 -31.668 -76.998 -95.001 -76.998c-8 0 -15.833 0.5 -23.5 1.5l-25.5 3.5v53c7.33301 -1.33301 13.833 -2.33301 19.5 -3s11.167 -1 16.5 -1c14.667 0 25.167 2.16699 31.5 6.5s9.5 10.166 9.5 17.499v13c-0.666992 10 -3.66699 16.833 -9 20.5
s-13.666 5.5 -24.999 5.5h-30v21l16 54c-40.667 9.33301 -70.667 28.666 -90 57.999s-29 68.333 -29 117v148c0 58.667 14.5 103.667 43.5 135s74.833 47 137.5 47c17.333 0 32.5 -0.833008 45.5 -2.5s30.5 -4.16699 52.5 -7.5l-2 -75
c-17.333 3.33301 -32.833 5.83301 -46.5 7.5s-30.167 2.5 -49.5 2.5c-32 0 -56 -8.66699 -72 -26s-24 -42 -24 -74v-161c0 -34 8.5 -59.333 25.5 -76s40.5 -25 70.5 -25c19.333 0 35.833 0.833008 49.5 2.5s29.167 4.16699 46.5 7.5l2 -75
c-22 -3.33301 -39.5 -5.83301 -52.5 -7.5s-28.167 -2.5 -45.5 -2.5l-9 -29h10c14 0 26.167 -5.83301 36.5 -17.5s15.5 -27.167 15.5 -46.5v-15z" />
    <glyph glyph-name="egrave" unicode="&#xe8;" horiz-adv-x="467" 
d="M70 321c0 58 13.8301 102.333 41.4971 133s70.5 46 128.5 46c56.667 0 99.5 -15.167 128.5 -45.5s43.5 -74.833 43.5 -133.5v-103h-257v-59c0 -34 8 -58.5 24 -73.5s41.667 -22.5 77 -22.5c10.667 0 22.334 0.666992 35.001 2s25.5 2.83301 38.5 4.5s25.333 3.5 37 5.5
s21.834 4 30.501 6l-4 -75c-22 -4 -45.5 -8 -70.5 -12s-47.167 -6 -66.5 -6c-67.333 0 -115.166 14.5 -143.499 43.5s-42.5 73.167 -42.5 132.5v157zM154.997 286h172v45c0 33.333 -8 58 -24 74s-37 24 -63 24c-25.333 0 -45.833 -8 -61.5 -24s-23.5 -39.667 -23.5 -71v-48z
M154.997 685h85l76 -139h-66z" />
    <glyph glyph-name="eacute" unicode="&#xe9;" horiz-adv-x="467" 
d="M70 321c0 58 13.8301 102.333 41.4971 133s70.5 46 128.5 46c56.667 0 99.5 -15.167 128.5 -45.5s43.5 -74.833 43.5 -133.5v-103h-257v-59c0 -34 8 -58.5 24 -73.5s41.667 -22.5 77 -22.5c10.667 0 22.334 0.666992 35.001 2s25.5 2.83301 38.5 4.5s25.333 3.5 37 5.5
s21.834 4 30.501 6l-4 -75c-22 -4 -45.5 -8 -70.5 -12s-47.167 -6 -66.5 -6c-67.333 0 -115.166 14.5 -143.499 43.5s-42.5 73.167 -42.5 132.5v157zM154.997 286h172v45c0 33.333 -8 58 -24 74s-37 24 -63 24c-25.333 0 -45.833 -8 -61.5 -24s-23.5 -39.667 -23.5 -71v-48z
M232.997 546h-66l76 139h85z" />
    <glyph glyph-name="ecircumflex" unicode="&#xea;" horiz-adv-x="467" 
d="M70 321c0 58 13.8301 102.333 41.4971 133s70.5 46 128.5 46c56.667 0 99.5 -15.167 128.5 -45.5s43.5 -74.833 43.5 -133.5v-103h-257v-59c0 -34 8 -58.5 24 -73.5s41.667 -22.5 77 -22.5c10.667 0 22.334 0.666992 35.001 2s25.5 2.83301 38.5 4.5s25.333 3.5 37 5.5
s21.834 4 30.501 6l-4 -75c-22 -4 -45.5 -8 -70.5 -12s-47.167 -6 -66.5 -6c-67.333 0 -115.166 14.5 -143.499 43.5s-42.5 73.167 -42.5 132.5v157zM154.997 286h172v45c0 33.333 -8 58 -24 74s-37 24 -63 24c-25.333 0 -45.833 -8 -61.5 -24s-23.5 -39.667 -23.5 -71v-48z
M112.997 546v70l130 74l130 -74v-70l-130 65z" />
    <glyph glyph-name="edieresis" unicode="&#xeb;" horiz-adv-x="467" 
d="M70 321c0 58 13.8301 102.333 41.4971 133s70.5 46 128.5 46c56.667 0 99.5 -15.167 128.5 -45.5s43.5 -74.833 43.5 -133.5v-103h-257v-59c0 -34 8 -58.5 24 -73.5s41.667 -22.5 77 -22.5c10.667 0 22.334 0.666992 35.001 2s25.5 2.83301 38.5 4.5s25.333 3.5 37 5.5
s21.834 4 30.501 6l-4 -75c-22 -4 -45.5 -8 -70.5 -12s-47.167 -6 -66.5 -6c-67.333 0 -115.166 14.5 -143.499 43.5s-42.5 73.167 -42.5 132.5v157zM154.997 286h172v45c0 33.333 -8 58 -24 74s-37 24 -63 24c-25.333 0 -45.833 -8 -61.5 -24s-23.5 -39.667 -23.5 -71v-48z
M212.997 621c0 -29.333 -18.333 -43.999 -55 -43.999c-17.333 0 -30.666 3.83301 -39.999 11.5s-14 18.5 -14 32.5v29c0 15.333 4.66699 26.666 14 33.999s22.666 11 39.999 11c36.667 0 55 -15 55 -45v-29zM384.997 621.001c0 -29.333 -18.333 -44 -55 -44
c-36 0 -54 14.667 -54 44v29c0 30 18 45 54 45c36.667 0 55 -15 55 -45v-29z" />
    <glyph glyph-name="igrave" unicode="&#xec;" horiz-adv-x="245" 
d="M80 0v488h85v-488h-85zM39 685h85l76 -139h-66z" />
    <glyph glyph-name="iacute" unicode="&#xed;" horiz-adv-x="245" 
d="M80 0v488h85v-488h-85zM115 546h-66l76 139h85z" />
    <glyph glyph-name="icircumflex" unicode="&#xee;" horiz-adv-x="245" 
d="M80 0v488h85v-488h-85zM-6 546v70l130 74l130 -74v-70l-130 65z" />
    <glyph glyph-name="idieresis" unicode="&#xef;" horiz-adv-x="245" 
d="M80 0v488h85v-488h-85zM90 621c0 -29.333 -18.333 -43.999 -55 -43.999c-17.333 0 -30.666 3.83301 -39.999 11.5s-14 18.5 -14 32.5v29c0 15.333 4.66699 26.666 14 33.999s22.666 11 39.999 11c36.667 0 55 -15 55 -45v-29zM262 621.001c0 -29.333 -18.333 -44 -55 -44
c-36 0 -54 14.667 -54 44v29c0 30 18 45 54 45c36.667 0 55 -15 55 -45v-29z" />
    <glyph glyph-name="eth" unicode="&#xf0;" horiz-adv-x="497" 
d="M115 695c93.333 0 165.999 -26.333 217.999 -79l99 29v-66l-59 -17c15.333 -28 27.166 -60.5 35.499 -97.5s12.5 -78.5 12.5 -124.5v-170c0 -58.667 -14.5 -103.667 -43.5 -135s-72.167 -47 -129.5 -47c-60.667 0 -104.667 13.5 -132 40.5s-41 69.833 -41 128.5v115
c0 56 11.833 97.833 35.5 125.5s56.167 41.5 97.5 41.5c22.667 0 44.834 -6.16699 66.501 -18.5s42.167 -32.166 61.5 -59.499v25c0 31.333 -3.66699 59.666 -11 84.999s-17.666 48 -30.999 68l-117 -34v66l68 20c-36.667 26.667 -80 40 -130 40v64zM224.999 363
c-19.333 0 -34.999 -8 -46.999 -24s-18 -42.333 -18 -79v-112c0 -59.333 29.333 -89 88 -89s88 29.667 88 89v133c-16.667 28 -34.834 48.667 -54.501 62s-38.5 20 -56.5 20z" />
    <glyph glyph-name="ntilde" unicode="&#xf1;" horiz-adv-x="491" 
d="M75 0v488h80v-73c17.333 27.333 37.333 48.333 60 63s47 22 73 22c42.667 0 75.5 -14.333 98.5 -43s34.5 -70 34.5 -124v-333h-85v321c0 36 -6 61.667 -18 77s-27.667 23 -47 23s-39 -7.33301 -59 -22s-37.333 -34.667 -52 -60v-339h-85zM378 615
c-5.33301 -4.66699 -15.001 -10.833 -29.001 -18.5s-31 -11.5 -51 -11.5c-10 0 -19.167 1.33301 -27.5 4s-16.5 5.5 -24.5 8.5s-16 5.83301 -24 8.5s-16.667 4 -26 4c-6 0 -12.667 -0.833008 -20 -2.5s-14.833 -3.83398 -22.5 -6.50098s-14.667 -5.5 -21 -8.5
s-11.166 -5.5 -14.499 -7.5v70c4 4 13.5 10 28.5 18s32.167 12 51.5 12c12.667 0 23.5 -1.33301 32.5 -4s17.167 -5.5 24.5 -8.5l21.5 -8.5c7 -2.66699 14.833 -4 23.5 -4c6 0 13 1 21 3s15.833 4.33301 23.5 7s14.5 5.33398 20.5 8.00098s10.333 5 13 7v-70z" />
    <glyph glyph-name="ograve" unicode="&#xf2;" horiz-adv-x="492" 
d="M337 326c0 34 -8 59.667 -24 77s-38.333 26 -67 26s-51 -8.83301 -67 -26.5s-24 -43.5 -24 -77.5v-162c0 -34 8 -59.833 24 -77.5s38.333 -26.5 67 -26.5s51 8.83301 67 26.5s24 43.5 24 77.5v163zM422 170c0 -56.667 -14 -101.167 -42 -133.5s-72.667 -48.5 -134 -48.5
s-106 16.167 -134 48.5s-42 76.833 -42 133.5v148c0 56.667 14 101.167 42 133.5s72.667 48.5 134 48.5s106 -16.167 134 -48.5s42 -76.833 42 -133.5v-148zM157 685h85l76 -139h-66z" />
    <glyph glyph-name="oacute" unicode="&#xf3;" horiz-adv-x="492" 
d="M337 326c0 34 -8 59.667 -24 77s-38.333 26 -67 26s-51 -8.83301 -67 -26.5s-24 -43.5 -24 -77.5v-162c0 -34 8 -59.833 24 -77.5s38.333 -26.5 67 -26.5s51 8.83301 67 26.5s24 43.5 24 77.5v163zM422 170c0 -56.667 -14 -101.167 -42 -133.5s-72.667 -48.5 -134 -48.5
s-106 16.167 -134 48.5s-42 76.833 -42 133.5v148c0 56.667 14 101.167 42 133.5s72.667 48.5 134 48.5s106 -16.167 134 -48.5s42 -76.833 42 -133.5v-148zM233 546h-66l76 139h85z" />
    <glyph glyph-name="ocircumflex" unicode="&#xf4;" horiz-adv-x="492" 
d="M337 326c0 34 -8 59.667 -24 77s-38.333 26 -67 26s-51 -8.83301 -67 -26.5s-24 -43.5 -24 -77.5v-162c0 -34 8 -59.833 24 -77.5s38.333 -26.5 67 -26.5s51 8.83301 67 26.5s24 43.5 24 77.5v163zM422 170c0 -56.667 -14 -101.167 -42 -133.5s-72.667 -48.5 -134 -48.5
s-106 16.167 -134 48.5s-42 76.833 -42 133.5v148c0 56.667 14 101.167 42 133.5s72.667 48.5 134 48.5s106 -16.167 134 -48.5s42 -76.833 42 -133.5v-148zM113 546v70l130 74l130 -74v-70l-130 65z" />
    <glyph glyph-name="otilde" unicode="&#xf5;" horiz-adv-x="492" 
d="M337 326c0 34 -8 59.667 -24 77s-38.333 26 -67 26s-51 -8.83301 -67 -26.5s-24 -43.5 -24 -77.5v-162c0 -34 8 -59.833 24 -77.5s38.333 -26.5 67 -26.5s51 8.83301 67 26.5s24 43.5 24 77.5v163zM422 170c0 -56.667 -14 -101.167 -42 -133.5s-72.667 -48.5 -134 -48.5
s-106 16.167 -134 48.5s-42 76.833 -42 133.5v148c0 56.667 14 101.167 42 133.5s72.667 48.5 134 48.5s106 -16.167 134 -48.5s42 -76.833 42 -133.5v-148zM373 615c-5.33301 -4.66699 -15.001 -10.833 -29.001 -18.5s-31 -11.5 -51 -11.5c-10 0 -19.167 1.33301 -27.5 4
s-16.5 5.5 -24.5 8.5s-16 5.83301 -24 8.5s-16.667 4 -26 4c-6 0 -12.667 -0.833008 -20 -2.5s-14.833 -3.83398 -22.5 -6.50098s-14.667 -5.5 -21 -8.5s-11.166 -5.5 -14.499 -7.5v70c4 4 13.5 10 28.5 18s32.167 12 51.5 12c12.667 0 23.5 -1.33301 32.5 -4
s17.167 -5.5 24.5 -8.5l21.5 -8.5c7 -2.66699 14.833 -4 23.5 -4c6 0 13 1 21 3s15.833 4.33301 23.5 7s14.5 5.33398 20.5 8.00098s10.333 5 13 7v-70z" />
    <glyph glyph-name="odieresis" unicode="&#xf6;" horiz-adv-x="492" 
d="M337 326c0 34 -8 59.667 -24 77s-38.333 26 -67 26s-51 -8.83301 -67 -26.5s-24 -43.5 -24 -77.5v-162c0 -34 8 -59.833 24 -77.5s38.333 -26.5 67 -26.5s51 8.83301 67 26.5s24 43.5 24 77.5v163zM422 170c0 -56.667 -14 -101.167 -42 -133.5s-72.667 -48.5 -134 -48.5
s-106 16.167 -134 48.5s-42 76.833 -42 133.5v148c0 56.667 14 101.167 42 133.5s72.667 48.5 134 48.5s106 -16.167 134 -48.5s42 -76.833 42 -133.5v-148zM217 621c0 -29.333 -18.333 -43.999 -55 -43.999c-17.333 0 -30.666 3.83301 -39.999 11.5s-14 18.5 -14 32.5v29
c0 15.333 4.66699 26.666 14 33.999s22.666 11 39.999 11c36.667 0 55 -15 55 -45v-29zM389 621.001c0 -29.333 -18.333 -44 -55 -44c-36 0 -54 14.667 -54 44v29c0 30 18 45 54 45c36.667 0 55 -15 55 -45v-29z" />
    <glyph glyph-name="divide" unicode="&#xf7;" 
d="M83 265v70h354v-70h-354zM309 154c0 -13.333 -4 -23.833 -12 -31.5s-20.333 -11.5 -37 -11.5c-16 0 -28 3.83301 -36 11.5s-12 18.167 -12 31.5v17c0 13.333 4 24 12 32s20 12 36 12c16.667 0 29 -4 37 -12s12 -18.667 12 -32v-17zM309 428
c0 -13.333 -4 -23.833 -12 -31.5s-20.333 -11.5 -37 -11.5c-16 0 -28 3.83301 -36 11.5s-12 18.167 -12 31.5v17c0 13.333 4 24 12 32s20 12 36 12c16.667 0 29 -4 37 -12s12 -18.667 12 -32v-17z" />
    <glyph glyph-name="oslash" unicode="&#xf8;" horiz-adv-x="492" 
d="M6 -51l82 122.998c-12 26.667 -18 59.334 -18 98.001v148c0 56.667 14 101.167 42 133.5s72.667 48.5 134 48.5c44 0 80 -9.33301 108 -28l44 66h88l-82 -124c12 -27.333 18 -59.333 18 -96v-148c0 -56.667 -14 -101.167 -42 -133.5s-72.667 -48.5 -134 -48.5
c-22.667 0 -43 2.33301 -61 7s-33.667 11.334 -47 20.001l-44 -66h-88zM155 157.998l160 242c-15.333 19.333 -38.333 29 -69 29c-28.667 0 -51 -8.83301 -67 -26.5s-24 -43.5 -24 -77.5v-167zM337 325.998l-160 -239c16 -18.667 39 -28 69 -28c28.667 0 51 8.83301 67 26.5
s24 43.5 24 77.5v163z" />
    <glyph glyph-name="ugrave" unicode="&#xf9;" horiz-adv-x="496" 
d="M421 488v-487.999h-80v70c-18 -26.667 -38.167 -47 -60.5 -61s-46.5 -21 -72.5 -21c-40.667 0 -73 13.667 -97 41s-36 69.333 -36 126v333h85v-318c0 -36.667 6 -63 18 -79s27.667 -24 47 -24s38.833 7.16699 58.5 21.5s37.167 34.166 52.5 59.499v340h85zM142 685.001
h85l76 -139h-66z" />
    <glyph glyph-name="uacute" unicode="&#xfa;" horiz-adv-x="496" 
d="M421 488v-487.999h-80v70c-18 -26.667 -38.167 -47 -60.5 -61s-46.5 -21 -72.5 -21c-40.667 0 -73 13.667 -97 41s-36 69.333 -36 126v333h85v-318c0 -36.667 6 -63 18 -79s27.667 -24 47 -24s38.833 7.16699 58.5 21.5s37.167 34.166 52.5 59.499v340h85zM268 546.001
h-66l76 139h85z" />
    <glyph glyph-name="ucircumflex" unicode="&#xfb;" horiz-adv-x="496" 
d="M421 488v-487.999h-80v70c-18 -26.667 -38.167 -47 -60.5 -61s-46.5 -21 -72.5 -21c-40.667 0 -73 13.667 -97 41s-36 69.333 -36 126v333h85v-318c0 -36.667 6 -63 18 -79s27.667 -24 47 -24s38.833 7.16699 58.5 21.5s37.167 34.166 52.5 59.499v340h85zM118 546.001
v70l130 74l130 -74v-70l-130 65z" />
    <glyph glyph-name="udieresis" unicode="&#xfc;" horiz-adv-x="496" 
d="M421 488v-487.999h-80v70c-18 -26.667 -38.167 -47 -60.5 -61s-46.5 -21 -72.5 -21c-40.667 0 -73 13.667 -97 41s-36 69.333 -36 126v333h85v-318c0 -36.667 6 -63 18 -79s27.667 -24 47 -24s38.833 7.16699 58.5 21.5s37.167 34.166 52.5 59.499v340h85zM215 621.001
c0 -29.333 -18.333 -43.999 -55 -43.999c-17.333 0 -30.666 3.83301 -39.999 11.5s-14 18.5 -14 32.5v29c0 15.333 4.66699 26.666 14 33.999s22.666 11 39.999 11c36.667 0 55 -15 55 -45v-29zM387 621.002c0 -29.333 -18.333 -44 -55 -44c-36 0 -54 14.667 -54 44v29
c0 30 18 45 54 45c36.667 0 55 -15 55 -45v-29z" />
    <glyph glyph-name="yacute" unicode="&#xfd;" horiz-adv-x="450" 
d="M207 -185h-85l64 185h-32l-139 488h93l105 -427l130 427h88zM243 546h-66l76 139h85z" />
    <glyph glyph-name="thorn" unicode="&#xfe;" horiz-adv-x="490" 
d="M75 -185v868h85v-259c17.333 24.667 36.5 43.5 57.5 56.5s44.167 19.5 69.5 19.5c42 0 74.667 -14 98 -42s35 -69.667 35 -125v-178c0 -52.667 -13.5 -93.667 -40.5 -123s-63.5 -44 -109.5 -44c-18.667 0 -38 3.66699 -58 11s-37.333 15.333 -52 24v-208h-85zM270 424
c-19.333 0 -38.833 -7.00098 -58.5 -21.001s-36.834 -33.667 -51.501 -59v-245c14.667 -11.333 30.334 -20.166 47.001 -26.499s32 -9.5 46 -9.5c54.667 0 82 34.667 82 104v154c0 38 -6 64.667 -18 80s-27.667 23 -47 23z" />
    <glyph glyph-name="ydieresis" unicode="&#xff;" horiz-adv-x="450" 
d="M207 -185h-85l64 185h-32l-139 488h93l105 -427l130 427h88zM205 621c0 -29.333 -18.333 -43.999 -55 -43.999c-17.333 0 -30.666 3.83301 -39.999 11.5s-14 18.5 -14 32.5v29c0 15.333 4.66699 26.666 14 33.999s22.666 11 39.999 11c36.667 0 55 -15 55 -45v-29z
M377 621.001c0 -29.333 -18.333 -44 -55 -44c-36 0 -54 14.667 -54 44v29c0 30 18 45 54 45c36.667 0 55 -15 55 -45v-29z" />
    <glyph glyph-name="hbar" unicode="&#x127;" horiz-adv-x="496" 
d="M75 0l0.00195312 553h-70v70h70v60h85v-60h120v-70h-120v-130c17.333 24.667 36.666 43.667 57.999 57s44.666 20 69.999 20c42.667 0 75.5 -14.333 98.5 -43s34.5 -70 34.5 -124v-333h-85v321c0 36.667 -6 62.5 -18 77.5s-27.667 22.5 -47 22.5s-39 -7.33301 -59 -22
s-37.333 -34.667 -52 -60v-339h-85z" />
    <glyph glyph-name="Itilde" unicode="&#x128;" horiz-adv-x="235" 
d="M75 0v655h85v-655h-85zM257 740c-7.33301 -6 -14.999 -10.9971 -22.999 -14.9971c-7.33301 -4 -15.833 -7.5 -25.5 -10.5s-20.167 -4.5 -31.5 -4.5s-22 1.33301 -32 4s-20 5.5 -30 8.5s-20 5.83301 -30 8.5s-20 4 -30 4c-8.66699 0 -17.5 -1.33301 -26.5 -4
s-17.167 -5.66699 -24.5 -9c-8.66699 -3.33301 -17.667 -7.33301 -27 -12v70c7.33301 5.33301 15 10.333 23 15c7.33301 3.33301 15.833 6.66602 25.5 9.99902s20.167 5 31.5 5c13.333 0 25.5 -1.33301 36.5 -4s21.167 -5.5 30.5 -8.5l27.5 -8.5
c9 -2.66699 18.167 -4 27.5 -4c8 0 16.667 1.16699 26 3.5s17.666 5.16602 24.999 8.49902c8.66699 3.33301 17.667 7.66602 27 12.999v-70z" />
    <glyph glyph-name="itilde" unicode="&#x129;" horiz-adv-x="245" 
d="M80 0v488h85v-488h-85zM255 615c-5.33301 -4.66699 -15.001 -10.833 -29.001 -18.5s-31 -11.5 -51 -11.5c-10 0 -19.167 1.33301 -27.5 4s-16.5 5.5 -24.5 8.5s-16 5.83301 -24 8.5s-16.667 4 -26 4c-6 0 -12.667 -0.833008 -20 -2.5s-14.833 -3.83398 -22.5 -6.50098
s-14.667 -5.5 -21 -8.5s-11.166 -5.5 -14.499 -7.5v70c4 4 13.5 10 28.5 18s32.167 12 51.5 12c12.667 0 23.5 -1.33301 32.5 -4s17.167 -5.5 24.5 -8.5l21.5 -8.5c7 -2.66699 14.833 -4 23.5 -4c6 0 13 1 21 3s15.833 4.33301 23.5 7s14.5 5.33398 20.5 8.00098
s10.333 5 13 7v-70z" />
    <glyph glyph-name="dotlessi" unicode="&#x131;" horiz-adv-x="245" 
d="M80 0v488h85v-488h-85z" />
    <glyph glyph-name="IJ" unicode="&#x132;" horiz-adv-x="547" 
d="M75 0v655h85v-655h-85zM472 139c0 -51.333 -12.002 -89.334 -36.002 -114.001s-63 -37 -117 -37c-11.333 0 -23.666 0.833008 -36.999 2.5s-22.333 3.16699 -27 4.5v71c5.33301 -1.33301 14.833 -2.5 28.5 -3.5s26.834 -1.5 39.501 -1.5c20.667 0 36.5 4.83301 47.5 14.5
s16.5 25.834 16.5 48.501v531h85v-516z" />
    <glyph glyph-name="ij" unicode="&#x133;" horiz-adv-x="480" 
d="M80 0v488h85v-488h-85zM178 620c0 -30 -18.667 -45 -56 -45c-36.667 0 -55 15 -55 45v29c0 30.667 18.333 46 55 46c37.333 0 56 -15.333 56 -46v-29zM320 488l85 0.000976562v-536c0 -50 -12.167 -87.333 -36.5 -112s-63.166 -37 -116.499 -37
c-11.333 0 -23 0.666992 -35 2s-20.333 2.66602 -25 3.99902v71c5.33301 -0.666992 14.166 -1.5 26.499 -2.5s24.833 -1.5 37.5 -1.5c42.667 0 64 23.667 64 71v541zM418 620.001c0 -30 -18.667 -45 -56 -45c-36.667 0 -55 15 -55 45v29c0 30.667 18.333 46 55 46
c37.333 0 56 -15.333 56 -46v-29z" />
    <glyph glyph-name="Jcircumflex" unicode="&#x134;" horiz-adv-x="323" 
d="M248 139c0 -51.333 -12.002 -89.334 -36.002 -114.001s-63 -37 -117 -37c-11.333 0 -23.666 0.833008 -36.999 2.5s-22.333 3.16699 -27 4.5v71c5.33301 -1.33301 14.833 -2.5 28.5 -3.5s26.834 -1.5 39.501 -1.5c20.667 0 36.5 4.83301 47.5 14.5
s16.5 25.834 16.5 48.501v531h85v-516zM58.998 710.999v68l140 61l140 -61v-68l-140 49z" />
    <glyph glyph-name="jcircumflex" unicode="&#x135;" horiz-adv-x="235" 
d="M75 488l85 0.000976562v-536c0 -50 -12.167 -87.333 -36.5 -112s-63.166 -37 -116.499 -37c-11.333 0 -23 0.666992 -35 2s-20.333 2.66602 -25 3.99902v71c5.33301 -0.666992 14.166 -1.5 26.499 -2.5s24.833 -1.5 37.5 -1.5c42.667 0 64 23.667 64 71v541zM-11 546.001
v70l130 74l130 -74v-70l-130 65z" />
    <glyph glyph-name="kcommaaccent" unicode="&#x137;" horiz-adv-x="452" 
d="M281 -118c0 -9.33301 -0.666992 -17.501 -2 -24.501s-3.33301 -14.5 -6 -22.5l-22 -66h-51l17 76c-10.667 3.33301 -18.167 7.83301 -22.5 13.5s-6.5 13.834 -6.5 24.501v25c0 10.667 4 19.334 12 26.001s18.667 10 32 10c17.333 0 29.833 -3.33301 37.5 -10
s11.5 -15.334 11.5 -26.001v-26zM75 -0.000976562v683h85v-409l160 214h95l-166 -214l178 -274h-102l-165 262v-262h-85z" />
    <glyph glyph-name="kgreenlandic" unicode="&#x138;" horiz-adv-x="452" 
d="M75 0v488h85v-232l160 232h95l-166 -233l178 -255h-102l-165 244v-244h-85z" />
    <glyph glyph-name="Ldotaccent" unicode="&#x13f;" horiz-adv-x="445" 
d="M75 0v655h85v-580h260v-75h-345zM319 448c0 -30 -18.667 -45 -56 -45c-36.667 0 -55 15 -55 45v29c0 30.667 18.333 46 55 46c37.333 0 56 -15.333 56 -46v-29z" />
    <glyph glyph-name="ldot" unicode="&#x140;" horiz-adv-x="329" 
d="M75 0v683h85v-683h-85zM319 448c0 -30 -18.667 -45 -56 -45c-36.667 0 -55 15 -55 45v29c0 30.667 18.333 46 55 46c37.333 0 56 -15.333 56 -46v-29z" />
    <glyph glyph-name="Lslash" unicode="&#x141;" horiz-adv-x="445" 
d="M5 344l70 19v292h85v-268l130 37v-76l-130 -37v-236h260v-75h-345v287l-70 -19v76z" />
    <glyph glyph-name="lslash" unicode="&#x142;" horiz-adv-x="235" 
d="M75 0v355l-90 -27v70l90 27v258h85v-233l90 28v-70l-90 -28v-380h-85z" />
    <glyph glyph-name="Nacute" unicode="&#x143;" horiz-adv-x="582" 
d="M375 0l-216 553v-553h-84v655h136l212 -553v553h84v-655h-132zM331 710h-70l66 119h89z" />
    <glyph glyph-name="nacute" unicode="&#x144;" horiz-adv-x="491" 
d="M75 0v488h80v-73c17.333 27.333 37.333 48.333 60 63s47 22 73 22c42.667 0 75.5 -14.333 98.5 -43s34.5 -70 34.5 -124v-333h-85v321c0 36 -6 61.667 -18 77s-27.667 23 -47 23s-39 -7.33301 -59 -22s-37.333 -34.667 -52 -60v-339h-85zM238 546h-66l76 139h85z" />
    <glyph glyph-name="OE" unicode="&#x152;" horiz-adv-x="771" 
d="M370 0c-27.333 -8 -58.001 -12 -92.001 -12c-70.667 0 -123 18.667 -157 56s-51 90.333 -51 159v249c0 70 17.333 123.333 52 160s85.334 55 152.001 55c36 0 68 -4 96 -12h336v-77h-260v-207h240v-76h-240v-218h260v-77h-336zM282.999 63c17.333 0 32.167 0.5 44.5 1.5
s23.5 3.16699 33.5 6.5v508c-20 8.66699 -46 13 -78 13c-41.333 0 -73 -11 -95 -33s-33 -54.333 -33 -97v-268c0 -42 10.833 -74.333 32.5 -97s53.5 -34 95.5 -34z" />
    <glyph glyph-name="oe" unicode="&#x153;" horiz-adv-x="743" 
d="M422 218v-58.998c0 -34 8.33301 -58.5 25 -73.5s43 -22.5 79 -22.5c10.667 0 22.5 0.666992 35.5 2s25.833 2.83301 38.5 4.5s25 3.5 37 5.5s22.333 4 31 6l-4 -75c-22 -4 -45.667 -8 -71 -12s-47.666 -6 -66.999 -6c-36 0 -65.833 5.16699 -89.5 15.5
s-43.167 25.166 -58.5 44.499c-14 -18.667 -31.833 -33.334 -53.5 -44.001s-47.834 -16 -78.501 -16c-61.333 0 -106 16.333 -134 49s-42 77 -42 133v148c0 56 13.667 100.333 41 133s71.666 49 132.999 49c30.667 0 57 -5.33301 79 -16s40.333 -25.334 55 -44.001
c14 18.667 32.167 33.334 54.5 44.001s48.833 16 79.5 16c56.667 0 99.334 -15.667 128.001 -47s43 -75.333 43 -132v-103h-261zM337 327.002c0 34 -8.16699 59.499 -24.5 76.499s-38.5 25.5 -66.5 25.5c-28.667 0 -51 -8.83301 -67 -26.5s-24 -43.5 -24 -77.5v-162
c0 -34 8 -59.833 24 -77.5s38.333 -26.5 67 -26.5c28 0 49.833 8.33301 65.5 25s24.167 41.334 25.5 74.001v169zM422 288.001h176v43c0 32 -7.83301 56.333 -23.5 73s-37.167 25 -64.5 25s-48.833 -8.16699 -64.5 -24.5s-23.5 -40.5 -23.5 -72.5v-44z" />
    <glyph glyph-name="Racute" unicode="&#x154;" horiz-adv-x="548" 
d="M248 667c40.667 0 75.5 -4.16797 104.5 -12.501s52.667 -20 71 -35s31.833 -33.167 40.5 -54.5s13 -45.333 13 -72v-26c0 -18 -2.83301 -35.667 -8.5 -53s-13.667 -33.666 -24 -48.999s-23 -29 -38 -41s-31.833 -21.333 -50.5 -28l167 -296h-95l-158 280h-62
c-14 0 -30 0.666992 -48 2v-282h-85v663c28 1.33301 56.667 2.33301 86 3s58.333 1 87 1zM246 595.999c-11.333 0 -25.1689 -0.166992 -41.502 -0.5s-31.166 -0.833008 -44.499 -1.5v-236c22.667 -1.33301 40.334 -2.33301 53.001 -3s24.667 -1 36 -1
c51.333 0 88 10.167 110 30.5s33 48.5 33 84.5v19c0 36 -11.167 63 -33.5 81s-59.833 27 -112.5 27zM267.997 709.999h-70l66 119h89z" />
    <glyph glyph-name="Rcommaaccent" unicode="&#x156;" horiz-adv-x="548" 
d="M319 -118c0 -9.33301 -0.666992 -17.501 -2 -24.501s-3.33301 -14.5 -6 -22.5l-22 -66h-51l17 76c-10.667 3.33301 -18.167 7.83301 -22.5 13.5s-6.5 13.834 -6.5 24.501v25c0 10.667 4 19.334 12 26.001s18.667 10 32 10c17.333 0 29.833 -3.33301 37.5 -10
s11.5 -15.334 11.5 -26.001v-26zM248 666.999c40.667 0 75.5 -4.16797 104.5 -12.501s52.667 -20 71 -35s31.833 -33.167 40.5 -54.5s13 -45.333 13 -72v-26c0 -18 -2.83301 -35.667 -8.5 -53s-13.667 -33.666 -24 -48.999s-23 -29 -38 -41s-31.833 -21.333 -50.5 -28
l167 -296h-95l-158 280h-62c-14 0 -30 0.666992 -48 2v-282h-85v663c28 1.33301 56.667 2.33301 86 3s58.333 1 87 1zM246 595.998c-11.333 0 -25.1689 -0.166992 -41.502 -0.5s-31.166 -0.833008 -44.499 -1.5v-236c22.667 -1.33301 40.334 -2.33301 53.001 -3
s24.667 -1 36 -1c51.333 0 88 10.167 110 30.5s33 48.5 33 84.5v19c0 36 -11.167 63 -33.5 81s-59.833 27 -112.5 27z" />
    <glyph glyph-name="rcommaaccent" unicode="&#x157;" horiz-adv-x="345" 
d="M166 -118c0 -9.33301 -0.666992 -17.501 -2 -24.501s-3.33301 -14.5 -6 -22.5l-22 -66h-51l17 76c-10.667 3.33301 -18.167 7.83301 -22.5 13.5s-6.5 13.834 -6.5 24.501v25c0 10.667 4 19.334 12 26.001s18.667 10 32 10c17.333 0 29.833 -3.33301 37.5 -10
s11.5 -15.334 11.5 -26.001v-26zM75 -0.000976562l0.000976562 488.001h80v-73c17.333 27.333 37.333 48.333 60 63s47 22 73 22c9.33301 0 16.666 -0.666992 21.999 -2v-96c-5.33301 1.33301 -10.833 2.16602 -16.5 2.49902s-13.167 0.5 -22.5 0.5
c-21.333 0 -41.5 -5.5 -60.5 -16.5s-35.833 -28.833 -50.5 -53.5v-335h-85z" />
    <glyph glyph-name="Rcaron" unicode="&#x158;" horiz-adv-x="548" 
d="M248 667c40.667 0 75.5 -4.16797 104.5 -12.501s52.667 -20 71 -35s31.833 -33.167 40.5 -54.5s13 -45.333 13 -72v-26c0 -18 -2.83301 -35.667 -8.5 -53s-13.667 -33.666 -24 -48.999s-23 -29 -38 -41s-31.833 -21.333 -50.5 -28l167 -296h-95l-158 280h-62
c-14 0 -30 0.666992 -48 2v-282h-85v663c28 1.33301 56.667 2.33301 86 3s58.333 1 87 1zM246 595.999c-11.333 0 -25.1689 -0.166992 -41.502 -0.5s-31.166 -0.833008 -44.499 -1.5v-236c22.667 -1.33301 40.334 -2.33301 53.001 -3s24.667 -1 36 -1
c51.333 0 88 10.167 110 30.5s33 48.5 33 84.5v19c0 36 -11.167 63 -33.5 81s-59.833 27 -112.5 27zM260.997 791.999l140 49v-68l-140 -61l-140 61v68z" />
    <glyph glyph-name="rcaron" unicode="&#x159;" horiz-adv-x="345" 
d="M75 0l0.000976562 488.001h80v-73c17.333 27.333 37.333 48.333 60 63s47 22 73 22c9.33301 0 16.666 -0.666992 21.999 -2v-96c-5.33301 1.33301 -10.833 2.16602 -16.5 2.49902s-13.167 0.5 -22.5 0.5c-21.333 0 -41.5 -5.5 -60.5 -16.5s-35.833 -28.833 -50.5 -53.5
v-335h-85zM173.001 625.001l130 65v-70l-130 -74l-130 74v70z" />
    <glyph glyph-name="dotlessj" unicode="&#x237;" horiz-adv-x="235" 
d="M75 488l85 0.000976562v-536c0 -50 -12.167 -87.333 -36.5 -112s-63.166 -37 -116.499 -37c-11.333 0 -23 0.666992 -35 2s-20.333 2.66602 -25 3.99902v71c5.33301 -0.666992 14.166 -1.5 26.499 -2.5s24.833 -1.5 37.5 -1.5c42.667 0 64 23.667 64 71v541z" />
    <glyph glyph-name="circumflex" unicode="&#x2c6;" horiz-adv-x="460" 
d="M100 546v70l130 74l130 -74v-70l-130 65z" />
    <glyph glyph-name="caron" unicode="&#x2c7;" horiz-adv-x="460" 
d="M230 625l130 65v-70l-130 -74l-130 74v70z" />
    <glyph glyph-name="ring" unicode="&#x2da;" horiz-adv-x="380" 
d="M305 625c0 -34 -10.333 -59.167 -31 -75.5s-48.667 -24.5 -84 -24.5c-34.667 0 -62.5 8.16699 -83.5 24.5s-31.5 41.5 -31.5 75.5s10.333 59.167 31 75.5s48.667 24.5 84 24.5c34.667 0 62.5 -8.16699 83.5 -24.5s31.5 -41.5 31.5 -75.5zM240 625
c0 13.333 -3.66699 24.166 -11 32.499s-20.333 12.5 -39 12.5s-31.667 -4.16699 -39 -12.5s-11 -19.166 -11 -32.499s3.66699 -24.166 11 -32.499s20.333 -12.5 39 -12.5s31.667 4.16699 39 12.5s11 19.166 11 32.499z" />
    <glyph glyph-name="tilde" unicode="&#x2dc;" horiz-adv-x="460" 
d="M360 615c-5.33301 -4.66699 -15.001 -10.833 -29.001 -18.5s-31 -11.5 -51 -11.5c-10 0 -19.167 1.33301 -27.5 4s-16.5 5.5 -24.5 8.5s-16 5.83301 -24 8.5s-16.667 4 -26 4c-6 0 -12.667 -0.833008 -20 -2.5s-14.833 -3.83398 -22.5 -6.50098s-14.667 -5.5 -21 -8.5
s-11.166 -5.5 -14.499 -7.5v70c4 4 13.5 10 28.5 18s32.167 12 51.5 12c12.667 0 23.5 -1.33301 32.5 -4s17.167 -5.5 24.5 -8.5l21.5 -8.5c7 -2.66699 14.833 -4 23.5 -4c6 0 13 1 21 3s15.833 4.33301 23.5 7s14.5 5.33398 20.5 8.00098s10.333 5 13 7v-70z" />
    <glyph glyph-name="dotaccentcmb" unicode="&#x307;" horiz-adv-x="251" 
d="M181 754c0 -30 -18.667 -45 -56 -45c-36.667 0 -55 15 -55 45v29c0 30.667 18.333 46 55 46c37.333 0 56 -15.333 56 -46v-29z" />
    <glyph glyph-name="endash" unicode="&#x2013;" horiz-adv-x="610" 
d="M65 263v65h480v-65h-480z" />
    <glyph glyph-name="emdash" unicode="&#x2014;" horiz-adv-x="710" 
d="M65 263v65h580v-65h-580z" />
    <glyph glyph-name="quoteleft" unicode="&#x2018;" horiz-adv-x="217" 
d="M59.0098 557.002c0 18.665 2.33301 35.3311 7 49.9971l29.998 88.9941h58.9961l-22.998 -98.9941c22.665 -5.33301 33.9971 -19.332 33.9971 -41.9971v-27.998c0 -29.3311 -17.665 -43.9971 -52.9961 -43.9971c-35.998 0 -53.9971 14.666 -53.9971 43.9971v29.998z" />
    <glyph glyph-name="quoteright" unicode="&#x2019;" horiz-adv-x="217" 
d="M162 621c0 -18.667 -2.33301 -35.333 -7 -50l-30 -89h-59l23 99c-22.667 5.33301 -34 19.333 -34 42v28c0 29.333 17.667 44 53 44c36 0 54 -14.667 54 -44v-30z" />
    <glyph glyph-name="quotesinglbase" unicode="&#x201a;" horiz-adv-x="217" 
d="M162 31c0 -18.667 -2.33301 -35.333 -7 -50l-30 -89h-59l23 99c-22.667 5.33301 -34 19.333 -34 42v28c0 29.333 17.667 44 53 44c36 0 54 -14.667 54 -44v-30z" />
    <glyph glyph-name="quotedblleft" unicode="&#x201c;" horiz-adv-x="357" 
d="M59.0098 556.002c0 18.665 2.33301 35.3311 7 49.9971l29.998 88.9941h58.9961l-22.998 -98.9941c22.665 -5.33301 33.9971 -19.332 33.9971 -41.9971v-27.998c0 -29.3311 -17.665 -43.9971 -52.9961 -43.9971c-35.998 0 -53.9971 14.666 -53.9971 43.9971v29.998z
M199.01 556.002c0 18.665 2.33301 35.3311 7 49.9971l29.998 88.9941h58.9961l-22.998 -98.9941c22.665 -5.33301 33.9971 -19.332 33.9971 -41.9971v-27.998c0 -29.3311 -17.665 -43.9971 -52.9961 -43.9971c-35.998 0 -53.9971 14.666 -53.9971 43.9971v29.998z" />
    <glyph glyph-name="quotedblright" unicode="&#x201d;" horiz-adv-x="357" 
d="M162 621c0 -18.667 -2.33301 -35.333 -7 -50l-30 -89h-59l23 99c-22.667 5.33301 -34 19.333 -34 42v28c0 29.333 17.667 44 53 44c36 0 54 -14.667 54 -44v-30zM302 621.001c0 -18.667 -2.33301 -35.333 -7 -50l-30 -89h-59l23 99c-22.667 5.33301 -34 19.333 -34 42v28
c0 29.333 17.667 44 53 44c36 0 54 -14.667 54 -44v-30z" />
    <glyph glyph-name="quotedblbase" unicode="&#x201e;" horiz-adv-x="357" 
d="M162 31c0 -18.667 -2.33301 -35.333 -7 -50l-30 -89h-59l23 99c-22.667 5.33301 -34 19.333 -34 42v28c0 29.333 17.667 44 53 44c36 0 54 -14.667 54 -44v-30zM302 31.001c0 -18.667 -2.33301 -35.333 -7 -50l-30 -89h-59l23 99c-22.667 5.33301 -34 19.333 -34 42v28
c0 29.333 17.667 44 53 44c36 0 54 -14.667 54 -44v-30z" />
    <glyph glyph-name="bullet" unicode="&#x2022;" horiz-adv-x="235" 
d="M180 251c0 -16.667 -5.5 -29.334 -16.5 -38.001s-26.5 -13 -46.5 -13c-19.333 0 -34.5 4.33301 -45.5 13s-16.5 21.334 -16.5 38.001v33c0 16.667 5.5 29.334 16.5 38.001s26.167 13 45.5 13c20 0 35.5 -4.33301 46.5 -13s16.5 -21.334 16.5 -38.001v-33z" />
    <glyph glyph-name="guilsinglleft" unicode="&#x2039;" horiz-adv-x="318" 
d="M253 488l-93 -170l93 -170h-88l-100 170l100 170h88z" />
    <glyph glyph-name="guilsinglright" unicode="&#x203a;" horiz-adv-x="318" 
d="M153 488l100 -170l-100 -170h-88l93 170l-93 170h88z" />
    <glyph glyph-name="Euro" unicode="&#x20ac;" 
d="M215 326l0.000976562 -61.998h182l-15 -70h-167v-11c0 -42.667 8.83301 -73.334 26.5 -92.001s46.5 -28 86.5 -28c24.667 0 49.167 1.83301 73.5 5.5s45.166 7.16699 62.499 10.5l2 -75c-22 -4 -44.833 -7.66699 -68.5 -11s-46.834 -5 -69.501 -5
c-36 0 -66.667 4.16699 -92 12.5s-45.833 21 -61.5 38s-27 38.167 -34 63.5s-10.5 54.666 -10.5 87.999v4h-83l15 70h68v62h-77l15 70h62v15c0 68 15.167 118.667 45.5 152s81.166 50 152.499 50c22.667 0 45.834 -1.66699 69.501 -5s46.5 -7 68.5 -11l-2 -73
c-17.333 3.33301 -38.166 6.83301 -62.499 10.5s-48.833 5.5 -73.5 5.5c-40 0 -68.833 -9.33301 -86.5 -28s-26.5 -49.667 -26.5 -93v-23h209l-15 -70h-194z" />
    <glyph glyph-name="commaaccent" unicode="&#xf6c3;" horiz-adv-x="300" 
d="M181 25c0 -9.33301 -0.666992 -17.501 -2 -24.501s-3.33301 -14.5 -6 -22.5l-22 -66h-51l17 76c-10.667 3.33301 -18.167 7.83301 -22.5 13.5s-6.5 13.834 -6.5 24.501v25c0 10.667 4 19.334 12 26.001s18.667 10 32 10c17.333 0 29.833 -3.33301 37.5 -10
s11.5 -15.334 11.5 -26.001v-26z" />
    <glyph glyph-name=".null" horiz-adv-x="0" 
 />
    <glyph glyph-name="nonmarkingreturn" horiz-adv-x="300" 
 />
    <glyph glyph-name="grave.cap" horiz-adv-x="385" 
d="M115 829h89l66 -119h-70z" />
    <glyph glyph-name="dieresis.cap" horiz-adv-x="431" 
d="M184 754c0 -29.333 -18.333 -43.999 -55 -43.999c-17.333 0 -30.666 3.83301 -39.999 11.5s-14 18.5 -14 32.5v29c0 15.333 4.66699 26.666 14 33.999s22.666 11 39.999 11c36.667 0 55 -15 55 -45v-29zM356 754.001c0 -29.333 -18.333 -44 -55 -44
c-36 0 -54 14.667 -54 44v29c0 30 18 45 54 45c36.667 0 55 -15 55 -45v-29z" />
    <glyph glyph-name="acute.cap" horiz-adv-x="385" 
d="M185 710h-70l66 119h89z" />
    <glyph glyph-name="circumflex.cap" horiz-adv-x="460" 
d="M90 711v68l140 61l140 -61v-68l-140 49z" />
    <glyph glyph-name="caron.cap" horiz-adv-x="460" 
d="M230 792l140 49v-68l-140 -61l-140 61v68z" />
    <glyph glyph-name="ring.cap" horiz-adv-x="380" 
d="M305 700c0 -34 -10.333 -59.167 -31 -75.5s-48.667 -24.5 -84 -24.5c-34.667 0 -62.5 8.16699 -83.5 24.5s-31.5 41.5 -31.5 75.5s10.333 59.167 31 75.5s48.667 24.5 84 24.5c34.667 0 62.5 -8.16699 83.5 -24.5s31.5 -41.5 31.5 -75.5zM240 700
c0 13.333 -3.66699 24.166 -11 32.499s-20.333 12.5 -39 12.5s-31.667 -4.16699 -39 -12.5s-11 -19.166 -11 -32.499s3.66699 -24.166 11 -32.499s20.333 -12.5 39 -12.5s31.667 4.16699 39 12.5s11 19.166 11 32.499z" />
    <glyph glyph-name="tilde.cap" horiz-adv-x="460" 
d="M370 740c-7.33301 -6 -14.999 -10.9971 -22.999 -14.9971c-7.33301 -4 -15.833 -7.5 -25.5 -10.5s-20.167 -4.5 -31.5 -4.5s-22 1.33301 -32 4s-20 5.5 -30 8.5s-20 5.83301 -30 8.5s-20 4 -30 4c-8.66699 0 -17.5 -1.33301 -26.5 -4s-17.167 -5.66699 -24.5 -9
c-8.66699 -3.33301 -17.667 -7.33301 -27 -12v70c7.33301 5.33301 15 10.333 23 15c7.33301 3.33301 15.833 6.66602 25.5 9.99902s20.167 5 31.5 5c13.333 0 25.5 -1.33301 36.5 -4s21.167 -5.5 30.5 -8.5l27.5 -8.5c9 -2.66699 18.167 -4 27.5 -4
c8 0 16.667 1.16699 26 3.5s17.666 5.16602 24.999 8.49902c8.66699 3.33301 17.667 7.66602 27 12.999v-70z" />
    <glyph glyph-name="dotaccentcmb.cap" horiz-adv-x="251" 
d="M181 754c0 -30 -18.667 -45 -56 -45c-36.667 0 -55 15 -55 45v29c0 30.667 18.333 46 55 46c37.333 0 56 -15.333 56 -46v-29z" />
    <glyph glyph-name="foundryicon" horiz-adv-x="864" 
d="M144 0v576h288v-288h288v-288h-576zM576 432v144h144v-144h-144z" />
    </font>
</defs>
</svg>
